<?xml version="1.0" encoding="UTF-8"?>
<svg id="Layer_2" data-name="Layer 2" xmlns="http://www.w3.org/2000/svg" viewBox="0 0 19.05 18.71">
  <defs>
    <style>
      .cls-1 {
        fill: #231f20;
        stroke-width: 0px;
      }
    </style>
  </defs>
  <g id="Layer_1-2" data-name="Layer 1">
    <g>
      <path class="cls-1" d="M9.52.88c-4.75,0-8.62,3.81-8.63,8.47,0,4.67,3.88,8.49,8.63,8.48,4.75,0,8.62-3.81,8.63-8.47,0-4.67-3.87-8.49-8.63-8.48M9.52,0c5.25,0,9.52,4.2,9.53,9.35,0,5.16-4.27,9.36-9.52,9.36C4.28,18.71,0,14.51,0,9.36,0,4.2,4.27,0,9.52,0"/>
      <path class="cls-1" d="M5.12,8.18v2.36h.22c.81,0,1.61,0,2.42,0,.41,0,.57.16.57.57,0,.79,0,1.58,0,2.38,0,.07,0,.14.01.21h2.38v-.21c0-.79,0-1.58,0-2.37,0-.39.16-.56.56-.56.81,0,1.62,0,2.44,0h.21v-2.36h-.21c-.81,0-1.62,0-2.44,0-.4,0-.56-.16-.56-.56,0-.8,0-1.6,0-2.39v-.2h-2.4v.21c0,.8,0,1.6,0,2.39,0,.38-.17.55-.55.55-.8,0-1.6,0-2.4,0h-.25ZM11.62,7.3h.23c.81,0,1.62,0,2.44,0,.39,0,.55.16.55.54,0,1.01,0,2.02,0,3.03,0,.37-.16.53-.54.54-.81,0-1.62,0-2.44,0h-.24v.22c0,.8,0,1.6,0,2.39,0,.39-.16.55-.57.55-1.02,0-2.03,0-3.05,0-.41,0-.57-.15-.57-.57,0-.79,0-1.58,0-2.38v-.22h-.22c-.81,0-1.62,0-2.44,0-.4,0-.56-.16-.56-.55,0-1.01,0-2.01,0-3.01,0-.39.16-.54.55-.54.81,0,1.62,0,2.44,0h.22c0-.08,0-.15,0-.21,0-.8,0-1.61,0-2.41,0-.38.16-.54.56-.54,1.02,0,2.05,0,3.07,0,.4,0,.56.16.56.56,0,.79,0,1.58,0,2.38v.23Z"/>
    </g>
  </g>
</svg>