<?xml version="1.0" encoding="UTF-8"?>
<svg id="Layer_2" data-name="Layer 2" xmlns="http://www.w3.org/2000/svg" viewBox="0 0 25.53 19.44">
  <defs>
    <style>
      .cls-1 {
        fill: #231f20;
        stroke-width: 0px;
      }
    </style>
  </defs>
  <g id="Layer_1-2" data-name="Layer 1">
    <g>
      <path class="cls-1" d="M3.83,11.38c-.71-.07-1.76.29-2,.68.39,0,.77.01,1.15,0,.41-.01.71-.26.85-.68M11.52,9.32c.72,0,1.41,0,2.1,0,.24,0,.4-.18.39-.4,0-.22-.16-.39-.4-.39-.56,0-1.13,0-1.69,0-.24,0-.38.16-.4.39,0,.12,0,.25,0,.4M2.83,15.01H.52v2.07h2.31v-2.07ZM9.63,17.09h.71c.73,0,1.46,0,2.19,0,.21,0,.39-.16.34-.31q-.17-.54-.72-.54s-.02,0-.02,0c-.29,0-.36-.07-.37-.37,0-.29,0-.57,0-.86h-2.13v2.08ZM6.24,13.16c-1.59,0-2.89,1.29-2.9,2.87,0,1.6,1.29,2.91,2.88,2.91,1.59,0,2.89-1.29,2.9-2.87,0-1.6-1.29-2.91-2.88-2.91M18.16,12.28c-.1.12-.2.22-.28.33-.15.18-.3.19-.5.08-.19-.11-.4-.2-.62-.26-.24-.06-.33-.19-.31-.43.01-.14,0-.29,0-.43h-1c0,.16,0,.31,0,.46.01.22-.08.33-.29.39-.23.07-.45.17-.66.28-.18.09-.33.09-.46-.08-.1-.12-.19-.25-.28-.36-.29.28-.51.5-.79.77.12.09.24.18.35.28.17.14.18.29.08.48-.11.22-.21.45-.28.69-.06.18-.16.26-.34.26-.16,0-.33,0-.49,0v1c.17,0,.32,0,.46,0,.21-.01.31.08.38.28.07.23.17.45.28.66.1.19.09.34-.08.48-.11.09-.22.2-.3.27.25.26.47.5.73.76.1-.11.19-.23.29-.34.13-.16.28-.17.46-.08.22.11.45.21.69.29.19.06.28.16.27.36,0,.16,0,.33,0,.49h1c0-.17,0-.31,0-.46-.01-.21.07-.32.27-.38.24-.08.48-.19.71-.3.16-.07.29-.07.4.06.11.12.21.25.31.37.27-.27.5-.49.76-.74-.11-.1-.22-.2-.33-.3-.17-.14-.18-.3-.07-.48.09-.16.16-.33.23-.5.04-.11.04-.27.12-.32.23-.14.19-.34.18-.54,0-.18.07-.3.23-.37.11-.05.22-.11.32-.17-.16-.05-.31-.05-.45-.05-.21.01-.31-.09-.38-.28-.07-.23-.16-.45-.28-.66-.1-.2-.09-.35.08-.48.12-.09.23-.18.34-.26-.27-.28-.49-.51-.75-.78M1.4,14.5c.55,0,1.08,0,1.61,0,.14,0,.22-.04.29-.16,1.35-2.25,4.49-2.25,5.85,0,.08.13.16.16.29.16.65,0,1.3,0,1.94,0,.17,0,.36.06.46-.18.02-.05.14-.07.22-.07.15-.01.3,0,.45,0,.06,0,.14-.05.17-.1.26-.49.26-.49-.13-.89-.02-.02-.03-.04-.05-.05-.14-.14-.15-.29,0-.43.33-.33.66-.66.99-.99.15-.15.29-.14.43.01.13.14.26.28.38.42.24-.11.5-.15.63-.3.1-.11.03-.37.03-.56,0,0,0-.02,0-.02,0-.18.1-.28.28-.28.47,0,.95,0,1.42,0,.2,0,.29.09.29.29,0,.2,0,.4,0,.59.22.09.43.18.65.27.13-.14.26-.28.4-.41.14-.15.29-.15.43,0,.33.33.66.66.99.99.14.14.14.28,0,.41-.15.14-.3.26-.44.39.05.1.08.15.09.21.07.42.33.53.72.48.13-.02.27.1.4.15,0,.03-.01.05-.02.08.1-.05.2-.12.31-.15.25-.08.31-.25.31-.51-.01-2.72,0-5.43,0-8.15v-.3c-.81,0-1.59-.01-2.37,0-1.65.03-3.13.55-4.43,1.56-.39.31-.74.67-1.11,1.01.02.02.03.05.05.07.17,0,.34.01.52,0,.75-.07,1.24.6,1,1.25,0,.01,0,.03.03.07h5.55v.48h-.31c-2.12,0-4.24,0-6.36,0-.66,0-1.33,0-1.99,0-.27,0-.34-.08-.35-.34,0-.18,0-.37,0-.55.01-.52.38-.91.9-.9.24,0,.37-.08.52-.26,1.17-1.41,2.65-2.32,4.44-2.71.86-.19,1.73-.18,2.6-.18.17,0,.34,0,.54,0-.33-.3-.83-.29-1-.74-.1,0-.21,0-.32,0-2.61.18-4.87,1.15-6.71,3.01-.75.75-1.38,1.61-2.06,2.43-.13.16-.27.24-.49.23-.86,0-1.73-.01-2.59,0-1.18.02-2.28.32-3.32.86-.1.05-.2.12-.35.21.2,0,.33-.02.45-.02.12,0,.25,0,.37,0,.32,0,.41.11.37.43-.1.72-.69,1.25-1.42,1.26-.45,0-.9,0-1.35,0-.07,0-.14,0-.21.01v1.93ZM18.96,16.89c.16.14.3.26.44.39.15.14.16.28.01.43-.33.33-.66.66-.99.99-.15.15-.29.14-.43-.01-.13-.14-.26-.28-.39-.41-.2.08-.37.14-.53.22-.06.03-.11.12-.12.18-.02.16,0,.32,0,.47,0,.18-.1.28-.28.28-.47,0-.95,0-1.42,0-.19,0-.29-.1-.29-.29,0-.03,0-.07,0-.1.07-.37-.05-.58-.43-.68-.16-.04-.24-.05-.36.07-.49.53-.49.48-.96,0-.24-.24-.47-.49-.72-.72-.07-.06-.18-.11-.28-.11-.92,0-1.84,0-2.77,0-.15,0-.21.05-.29.17-.68,1.1-1.68,1.69-2.98,1.67-1.25-.02-2.2-.61-2.86-1.67-.08-.13-.16-.18-.31-.17-.86,0-1.73,0-2.59,0-.36,0-.41-.06-.41-.42C0,16.41,0,15.66,0,14.9c0-.34.06-.4.41-.4.15,0,.3,0,.49,0v-.42c0-.56,0-1.11,0-1.67,0-.13.06-.28.15-.37,1.63-1.81,3.66-2.73,6.1-2.72.7,0,1.4,0,2.09,0,.2,0,.31-.07.43-.21.59-.73,1.15-1.49,1.81-2.16,2.03-2.09,4.52-3.17,7.43-3.31.03,0,.07,0,.14-.01v-.26c0-.7,0-1.4,0-2.09,0-.2.07-.32.25-.41.51-.25,1.02-.52,1.53-.78.32-.16.46-.07.47.29,0,.56,0,1.13,0,1.69,0,.09.08.22.15.26.83.46.83.46,1.67,0,.08-.04.16-.17.16-.26.01-.56,0-1.13,0-1.69,0-.37.15-.46.48-.3.5.25,1,.51,1.51.77.17.08.25.19.25.38,0,.96,0,1.91,0,2.87,0,.2-.08.3-.24.39-.45.22-.91.45-1.35.69-.07.04-.15.16-.15.24,0,2.87,0,5.73,0,8.6,0,.14.04.21.16.27.45.22.89.45,1.33.67.18.09.26.2.26.41,0,.94,0,1.88,0,2.82,0,.2-.07.32-.25.41-.51.25-1.02.52-1.53.78-.3.15-.46.05-.46-.28,0-.57,0-1.15,0-1.72,0-.09-.1-.18-.15-.26-.01-.02-.04-.02-.06-.04q-.84-.43-1.65.06c-.06.04-.11.15-.12.24,0,.57,0,1.15,0,1.72,0,.34-.16.43-.46.28-.4-.2-.79-.41-1.21-.62.08-.15.14-.28.22-.44.31.16.61.31.95.47,0-.52.02-1.01,0-1.49-.01-.3.08-.48.36-.6.32-.13.62-.33.94-.46.12-.05.3-.05.41,0,.36.16.71.36,1.07.53.16.08.22.2.22.38,0,.53,0,1.06,0,1.65.29-.15.54-.3.81-.4.36-.13.46-.35.44-.73-.04-.69-.01-1.38,0-2.07,0-.14-.04-.22-.18-.29-.45-.22-.89-.45-1.33-.67-.17-.08-.24-.2-.24-.39,0-3.01,0-6.01,0-9.02,0-.2.08-.32.26-.41.43-.21.86-.44,1.29-.65.14-.07.21-.15.21-.32-.01-.78,0-1.56,0-2.34,0-.14-.03-.23-.17-.29-.35-.17-.69-.35-1.08-.55v.67c0,.33,0,.66,0,1,0,.17-.07.28-.22.36-.36.18-.7.38-1.07.54-.12.05-.3.05-.41,0-.36-.16-.69-.35-1.05-.52-.18-.09-.26-.21-.25-.41.01-.45,0-.9,0-1.35v-.28c-.41.21-.79.4-1.16.6-.05.03-.09.12-.09.18,0,.82,0,1.64,0,2.47,0,.07.07.18.14.22.44.24.88.46,1.33.68.18.09.27.21.27.42,0,3,0,6,0,9,0,.2-.07.32-.25.41-.44.21-.87.45-1.31.66-.14.07-.21.14-.19.3.01.12.01.25,0,.37,0,.07-.03.18-.08.2-.35.11-.3.48-.51.73"/>
      <path class="cls-1" d="M17.24,14.49c-.33-.49-.75-.74-1.3-.73-.54,0-.96.25-1.27.73h2.57ZM14.5,15.01c-.11.58.15,1.17.65,1.49.51.33,1.16.32,1.66-.03.48-.33.72-.93.6-1.46h-2.91ZM13.96,15.24c0-1.1.91-1.99,2.01-1.98,1.1,0,1.99.91,1.98,2.01,0,1.09-.91,1.97-2,1.97-1.1,0-1.99-.9-1.99-2"/>
      <path class="cls-1" d="M7.58,16.05c0-.74-.6-1.35-1.34-1.35-.74,0-1.35.6-1.35,1.34,0,.74.6,1.35,1.34,1.35.74,0,1.35-.6,1.35-1.34M6.21,17.89c-1.01,0-1.83-.84-1.83-1.85,0-1.02.85-1.84,1.87-1.83,1.01.01,1.82.85,1.81,1.87-.01,1.01-.85,1.83-1.86,1.82"/>
    </g>
  </g>
</svg>