<?xml version="1.0" encoding="UTF-8"?>
<svg id="Layer_2" data-name="Layer 2" xmlns="http://www.w3.org/2000/svg" viewBox="0 0 22.03 24.02">
  <defs>
    <style>
      .cls-1 {
        fill: #231f20;
        stroke-width: 0px;
      }
    </style>
  </defs>
  <g id="Layer_1-2" data-name="Layer 1">
    <g>
      <path class="cls-1" d="M11.03,2.26c-1.41,0-2.81,0-4.22,0-.24,0-.4.07-.52.29-.77,1.53-1.98,2.6-3.58,3.26-.24.1-.34.25-.33.5,0,.69,0,1.39,0,2.08.02,2.32.61,4.49,1.74,6.52,1.55,2.78,3.81,4.85,6.63,6.34.21.11.39.07.58-.03,2.16-1.15,4.01-2.66,5.47-4.62,1.53-2.04,2.49-4.3,2.74-6.83.11-1.11.07-2.23.1-3.35,0-.45-.03-.49-.44-.67-1.51-.65-2.67-1.67-3.42-3.13-.14-.28-.33-.38-.63-.38-1.37.01-2.75,0-4.12,0M1.69,7.97c0-.68,0-1.17,0-1.65,0-.55.25-.93.77-1.14,1.44-.59,2.53-1.56,3.23-2.95.21-.42.56-.64,1.04-.64,2.85,0,5.7,0,8.56,0,.49,0,.84.22,1.06.65.69,1.37,1.77,2.34,3.2,2.92.55.23.81.61.8,1.2-.03,1.08,0,2.17-.08,3.25-.15,2-.77,3.87-1.74,5.62-1.62,2.92-3.99,5.08-6.95,6.65-.37.2-.74.2-1.11,0-3.1-1.64-5.54-3.93-7.16-7.04-1.15-2.22-1.67-4.58-1.61-6.87"/>
      <path class="cls-1" d="M11.03,0h5.62c.63,0,.94.28,1.07.9.29,1.44,1.21,2.33,2.57,2.8.28.1.58.15.88.19.56.09.88.42.88.98,0,1.45,0,2.91-.02,4.36,0,.26-.03.51-.05.77-.02.25-.18.39-.4.36-.2-.03-.3-.19-.3-.43.03-1.68.05-3.36.08-5.04,0-.2-.09-.29-.29-.32-1.01-.13-1.92-.5-2.68-1.18-.72-.64-1.19-1.43-1.35-2.38-.04-.24-.15-.32-.39-.32-3.75,0-7.49,0-11.24,0-.23,0-.35.06-.39.3-.25,1.62-1.6,3.09-3.57,3.51-.15.03-.31.07-.47.08-.22.02-.29.14-.29.34,0,.65,0,1.3,0,1.94.02,1.03.05,2.06.08,3.09,0,.25-.12.42-.33.44-.2.01-.36-.13-.37-.38-.03-.54-.07-1.08-.07-1.61-.01-1.15,0-2.3,0-3.44,0-.67.29-.99.96-1.07,1.67-.21,3.01-1.37,3.35-2.89.03-.15.05-.31.12-.45C4.6.17,4.92,0,5.34,0c1.9,0,3.79,0,5.69,0"/>
      <path class="cls-1" d="M11.02,24.02c-.14-.04-.29-.06-.41-.12-2.1-1.02-4.05-2.26-5.7-3.93-2.22-2.23-3.75-4.85-4.48-7.9-.02-.1-.06-.24-.02-.32.06-.1.19-.21.31-.23.18-.03.3.1.35.28.13.47.24.94.4,1.4,1.2,3.52,3.4,6.29,6.48,8.39.92.63,1.93,1.12,2.9,1.67.09.05.24.05.33,0,3-1.43,5.56-3.38,7.44-6.13,1.09-1.59,1.87-3.3,2.32-5.17.01-.05.03-.11.04-.16.07-.2.24-.31.42-.25.19.06.29.2.25.39-.06.3-.14.59-.22.88-1.08,3.63-3.21,6.54-6.22,8.84-1.16.89-2.44,1.58-3.74,2.24-.13.07-.28.09-.43.13"/>
      <path class="cls-1" d="M13.68,8.52c0-.69.06-1.36-.01-2.02-.13-1.2-1.19-2.15-2.4-2.24-1.3-.09-2.46.68-2.8,1.88-.22.78-.07,1.58-.12,2.38h5.33ZM11.04,9.21c-1.26,0-2.53,0-3.79,0-.44,0-.57.12-.57.55,0,1.53,0,3.06,0,4.59,0,.43.13.55.57.55h7.56c.44,0,.57-.12.57-.55,0-1.52,0-3.05,0-4.57,0-.46-.11-.57-.57-.57-1.26,0-2.51,0-3.77,0M7.65,8.53c0-.54,0-1.05,0-1.55,0-1.99,1.55-3.48,3.56-3.41,1.62.05,3.07,1.42,3.17,3.02.03.54.02,1.09.02,1.64,0,.09,0,.18,0,.3.18,0,.33,0,.47,0,.74,0,1.19.44,1.2,1.18,0,1.3,0,2.59,0,3.89,0,.28,0,.56,0,.84-.01.68-.46,1.14-1.14,1.14-2.6,0-5.2,0-7.8,0-.7,0-1.14-.46-1.15-1.16,0-1.59,0-3.17,0-4.76,0-.69.46-1.14,1.16-1.14.16,0,.31,0,.5,0"/>
      <path class="cls-1" d="M10.69,12.95c0-.09,0-.19,0-.28.02-.17-.04-.28-.18-.39-.36-.28-.38-.81-.07-1.14.32-.34.86-.34,1.18,0,.31.33.29.86-.07,1.14-.14.11-.18.23-.18.39.01.22,0,.44,0,.66,0,.24-.15.39-.35.39-.2,0-.34-.16-.34-.4,0-.12,0-.25,0-.37"/>
    </g>
  </g>
</svg>