<?xml version="1.0" encoding="UTF-8"?>
<svg id="Layer_2" data-name="Layer 2" xmlns="http://www.w3.org/2000/svg" viewBox="0 0 22.03 21.04">
  <defs>
    <style>
      .cls-1 {
        fill: #231f20;
        stroke-width: 0px;
      }
    </style>
  </defs>
  <g id="Layer_1-2" data-name="Layer 1">
    <g>
      <path class="cls-1" d="M15.08,8.66c-.66,1.31-1.11,1.92-1.9,2.57-1.63,1.33-3.51,1.9-5.59,1.85-.11,0-.2-.02-.24.14-.16.65-.21,1.3-.11,1.96.23,1.57,1.05,2.79,2.3,3.73,2.72,2.05,6.87,1.96,9.46-.24.13-.11.26-.15.44-.11.55.11,1.1.21,1.69.32-.23-.45-.43-.86-.66-1.26-.15-.27-.15-.48,0-.76.68-1.31.79-2.67.29-4.06-.59-1.65-1.77-2.75-3.33-3.48-.74-.35-1.52-.56-2.34-.65M6.72,13.03c-.39-.09-.77-.15-1.13-.25-1.04-.28-1.98-.75-2.83-1.41-.08-.06-.21-.08-.31-.06-.63.11-1.26.24-1.88.36-.06.01-.12.04-.17.03-.12-.03-.29-.04-.35-.13-.06-.08-.06-.27-.01-.37.29-.59.6-1.17.9-1.76.04-.07.04-.2,0-.27C-.19,6.81.24,4.21,2.09,2.34,3.47.95,5.17.23,7.11.04c1.2-.12,2.36.02,3.51.4.05.02.1.03.14.05.19.08.28.23.22.41-.06.18-.22.26-.43.21-.45-.12-.9-.27-1.35-.34-2.5-.36-4.74.2-6.59,1.99-1.12,1.08-1.69,2.43-1.64,4,.03.78.23,1.52.61,2.2.13.24.13.43,0,.66-.23.42-.44.85-.68,1.32.49-.09.93-.17,1.37-.26.06-.01.13-.02.19-.04.25-.09.44-.01.65.16,2.76,2.28,7.22,2.18,9.86-.24.95-.87,1.59-1.92,1.79-3.21.25-1.56-.19-2.94-1.17-4.16-.42-.53-.93-.97-1.51-1.34-.08-.05-.16-.1-.23-.16-.11-.12-.15-.27-.04-.39.08-.08.23-.11.35-.14.04,0,.09.03.13.06,1.59,1.02,2.69,2.39,3.07,4.28.15.76.13,1.51-.03,2.27-.02.08-.03.15-.05.25.23.04.46.08.68.13,2.11.48,3.84,1.54,4.94,3.44,1.02,1.77,1.07,3.61.19,5.46-.06.13-.07.22,0,.36.3.56.58,1.12.87,1.68.07.14.12.28.02.42-.11.15-.25.15-.42.12-.67-.14-1.34-.27-2.01-.38-.1-.02-.24.03-.33.09-2.92,2.25-7.17,2.28-10.12.05-1.29-.98-2.16-2.25-2.47-3.86-.16-.83-.12-1.66.09-2.49"/>
      <path class="cls-1" d="M4.08,9.1h.36v-1.39h-.36v1.39ZM4.44,7.03v-1.42c-.35,0-.69,0-1.02,0-.23,0-.37.15-.38.39,0,.22,0,.45,0,.67,0,.22.15.36.37.36.34,0,.67,0,1.03,0M9.27,8.93V3.74s-.06,0-.08.01c-1.32.57-2.65,1.13-3.97,1.71-.06.03-.11.14-.12.21-.01.42,0,.85,0,1.27,0,.15.04.23.18.29.66.27,1.32.56,1.98.84.66.28,1.33.57,2.01.86M3.42,7.7c-.54-.06-.92-.31-1-.83-.06-.35-.05-.72,0-1.07.06-.49.48-.82.98-.83.28,0,.56-.02.84,0,.34.02.64-.06.95-.2,1.39-.61,2.78-1.2,4.17-1.79.04-.02.08-.03.12-.05.25-.09.44.04.46.31,0,.09,0,.19,0,.28v5.64c0,.06,0,.12,0,.17,0,.37-.2.51-.55.36-.88-.38-1.77-.76-2.65-1.14-.47-.2-.95-.41-1.42-.61-.06-.02-.12-.04-.2-.07,0,.08-.02.14-.02.2,0,.44,0,.88,0,1.31,0,.26-.11.37-.37.37-.31,0-.62,0-.93,0-.28,0-.39-.12-.39-.4,0-.47,0-.95,0-1.42v-.24Z"/>
      <path class="cls-1" d="M12.02,5.33c-.13-.11-.27-.18-.29-.28-.03-.11.01-.29.09-.35.21-.16.44-.29.68-.39.09-.04.28.02.35.1.06.07.08.3.03.34-.26.21-.55.38-.86.59"/>
      <path class="cls-1" d="M12.94,8.01c0,.28-.25.44-.46.33-.22-.11-.44-.24-.65-.38-.15-.1-.18-.26-.09-.42.09-.16.24-.21.4-.13.23.12.45.24.66.39.07.05.1.16.13.2"/>
      <path class="cls-1" d="M12.71,6.64c-.11,0-.23,0-.34,0-.18-.01-.29-.12-.3-.3-.01-.19.09-.32.27-.33.26-.02.53-.02.8,0,.18.02.28.16.26.34-.01.17-.12.28-.29.29-.13,0-.26,0-.39,0h0Z"/>
      <path class="cls-1" d="M14.8,12.1c.21,0,.41,0,.61,0,.25,0,.4.12.41.31,0,.2-.15.33-.42.33-.45,0-.91,0-1.36,0-.51.02-.92.41-.98.9-.06.53.23,1,.73,1.15.13.04.27.05.4.06.76.04,1.4.57,1.57,1.31.18.72-.14,1.49-.8,1.86-.15.09-.2.18-.19.34,0,.11,0,.22-.01.32-.03.18-.15.28-.33.27-.18-.01-.29-.12-.3-.31,0-.11,0-.23,0-.36-.09,0-.15-.01-.22-.01-.38,0-.76,0-1.14,0-.23,0-.37-.14-.36-.34,0-.19.14-.31.36-.31.45,0,.9,0,1.36,0,.56-.02.99-.43,1.04-.99.05-.49-.31-.98-.81-1.1-.17-.04-.34-.03-.51-.06-.84-.13-1.46-.87-1.43-1.73.03-.86.68-1.57,1.53-1.64.16-.01.22-.06.2-.22,0-.06,0-.12,0-.17.01-.18.11-.29.3-.31.18-.02.31.1.34.28.01.06,0,.13,0,.19,0,.06,0,.13.01.21"/>
    </g>
  </g>
</svg>