<?xml version="1.0" encoding="UTF-8"?>
<svg id="Layer_2" data-name="Layer 2" xmlns="http://www.w3.org/2000/svg" viewBox="0 0 21.92 21.42">
  <defs>
    <style>
      .cls-1 {
        fill: #231f20;
        stroke-width: 0px;
      }
    </style>
  </defs>
  <g id="Layer_1-2" data-name="Layer 1">
    <g>
      <path class="cls-1" d="M17.17,12.59h-.76v.65h.76v-.65ZM6.13,7.6c1.27.49,3.23.47,3.96,0h-3.96ZM11.9,12.65v3.27h1.18c.15-.97-.43-2.58-1.18-3.27M4.32,12.61c-.83,1-1.25,2.07-1.21,3.31h1.21v-3.31ZM9.56,11.15c-.93-.26-1.84-.27-2.76-.05-.12.03-.16.08-.16.2,0,.33,0,.67,0,1v.47h2.92v-1.63ZM5.87,8.17c.05.82.39,1.43,1.07,1.83.78.46,1.59.45,2.36-.02.65-.4.99-1,1.03-1.81-1.5.52-2.97.52-4.46,0M10.56,6.98c.02-.92-.8-2.08-1.52-2.15,0,.1,0,.2,0,.3.01.32.03.64.03.95,0,.2-.12.33-.29.34-.17.01-.3-.11-.32-.31,0-.1-.01-.2-.02-.3-.02-.46-.03-.91-.05-1.38h-.59c0,.15-.02.29-.02.42-.02.42-.03.83-.05,1.25,0,.19-.14.32-.31.32-.17,0-.3-.14-.3-.33,0-.32.02-.64.04-.95,0-.11,0-.22,0-.33-.88.28-1.64,1.41-1.5,2.18h4.89ZM15.08,12.59v3.33h3.4v-3.33h-.7c0,.29,0,.57,0,.85,0,.31-.1.41-.41.41-.38,0-.77,0-1.15,0-.34,0-.43-.09-.43-.43,0-.28,0-.56,0-.84h-.7ZM11.25,15.93s.02-.05.02-.07c0-1.24,0-2.48,0-3.72,0-.05-.01-.11-.04-.13-.33-.22-.67-.43-1.05-.67,0,.53,0,.99,0,1.44,0,.42-.21.62-.64.62-.92,0-1.84,0-2.76,0-.57,0-.74-.16-.74-.72,0-.42,0-.84,0-1.33-.34.21-.63.39-.93.56-.13.08-.17.18-.17.33,0,1.15,0,2.31,0,3.46,0,.07,0,.15.01.23h6.29ZM10.96,16.53c-2.71,0-5.42,0-8.13,0-.03,0-.06,0-.09,0-1.4.04-2.41,1.35-2.06,2.67.26.99,1.12,1.62,2.22,1.62,5.37,0,10.74,0,16.11,0,.07,0,.14,0,.22,0,1.35-.06,2.34-1.36,2.01-2.64-.25-1-1.11-1.64-2.2-1.65-2.7,0-5.39,0-8.09,0M9.61,10.52c2.6.91,4.02,2.67,4.13,5.41h.7v-.25c0-.98,0-1.96,0-2.93,0-.55.22-.76.77-.76,1.04,0,2.07,0,3.11,0,.55,0,.77.21.77.74,0,.98,0,1.97,0,2.95v.23c.25.04.48.06.7.12,1.34.32,2.27,1.62,2.11,2.93-.18,1.41-1.34,2.46-2.75,2.46-5.46,0-10.91,0-16.37,0-1.45,0-2.65-1.11-2.77-2.51-.12-1.4.88-2.68,2.31-2.92.12-.02.18-.05.18-.18-.07-2.2,1.54-4.53,4.03-5.23.03,0,.05-.03.09-.05-.05-.04-.1-.07-.14-.11-.78-.56-1.19-1.32-1.2-2.27,0-.12-.04-.18-.15-.24-.1-.05-.19-.18-.2-.28-.02-.2-.06-.41.1-.59.04-.04.02-.12.03-.18.11-1.29.79-2.17,2-2.67.08-.03.14-.11.21-.16.08-.06.16-.15.24-.15.41-.02.82-.01,1.23,0,.06,0,.16.04.18.09.09.19.28.22.45.3,1.12.54,1.74,1.41,1.83,2.63.02.22.09.44.13.67.03.19-.06.31-.24.38-.05.02-.11.09-.11.14-.01,1.04-.47,1.83-1.34,2.42,0,0,0,.01,0,0"/>
      <path class="cls-1" d="M14.31,1.73q.26.48.05.99s-.04.09-.06.14c-.08.33-.29.5-.65.51-.01,0-.02.01-.04.03v.65c.45-.04.62.24.73.59.01.05.03.1.06.14.2.31.19.6-.07.87,0,0,0,.03,0,.04.15.15.29.29.47.46.31-.4.65-.24,1-.07.02,0,.04.02.06.02.36.09.59.29.6.67,0,.01.02.02.04.04.15,0,.31,0,.47,0,.13,0,.19-.04.19-.16.01-.27.16-.43.42-.49.07-.02.14-.05.2-.08.35-.18.7-.32,1.01.06.17-.17.31-.31.48-.48-.42-.32-.2-.68-.03-1.04,0,0,0-.01,0-.02.09-.35.3-.55.68-.56.01,0,.02-.02.05-.04,0-.16,0-.33,0-.49,0-.05-.07-.13-.11-.13-.35-.01-.51-.22-.59-.52-.03-.1-.07-.2-.12-.29-.15-.25-.15-.48.05-.7.03-.04.04-.14.01-.18-.11-.14-.25-.27-.37-.4-.11.07-.18.11-.25.17-.14.11-.28.12-.45.04-.23-.1-.47-.18-.7-.29-.09-.05-.19-.14-.23-.23-.13-.36-.12-.36-.51-.36h-.25c.05.49-.29.63-.67.75-.01,0-.03,0-.04.01-.32.19-.63.22-.93-.06,0,0-.03,0-.03,0-.15.15-.3.29-.45.43M17.09,7.42c0,.38,0,.76,0,1.14,0,.05.08.11.13.15.4.25.8.5,1.21.75.2.12.26.26.19.48-.09.31-.16.62-.24.93-.06.24-.2.34-.4.29-.19-.05-.26-.19-.2-.43.06-.23.12-.47.18-.7.01-.05,0-.14-.03-.16-.27-.18-.54-.34-.84-.52-.05.26.08.6-.34.62-.21.01-.27-.12-.3-.63-.3.19-.59.36-.86.54-.03.02-.03.12-.02.17.05.23.12.47.18.7.05.21-.03.36-.2.4-.18.05-.33-.04-.38-.25-.09-.33-.17-.67-.26-1.01-.05-.19.01-.32.19-.43.41-.25.82-.51,1.23-.75.11-.06.15-.13.14-.25,0-.35,0-.69,0-1.05-.43.02-.6-.21-.65-.57,0-.04-.03-.1-.06-.12-.12-.06-.25-.1-.38-.16-.17-.08-.25.07-.36.12-.24.13-.43.12-.63-.07-.2-.19-.39-.38-.58-.57-.2-.2-.21-.4-.06-.64.05-.09.14-.19.13-.27-.03-.16-.1-.31-.19-.45-.04-.06-.17-.06-.26-.08-.31-.07-.43-.21-.43-.52,0-.25,0-.51,0-.76,0-.3.13-.45.44-.51.37-.07.53-.47.33-.77-.18-.27-.16-.46.06-.68.18-.18.36-.35.54-.53.23-.22.42-.24.7-.06.31.2.71.04.79-.32.07-.32.22-.44.56-.44.24,0,.48,0,.72,0,.34,0,.49.13.56.45.07.34.48.51.78.32.29-.18.47-.17.72.06.18.17.35.34.52.51.23.23.25.41.07.68-.21.32-.05.7.34.78.29.06.43.22.44.5,0,.26,0,.52,0,.79,0,.29-.14.44-.43.5-.25.05-.46.29-.47.54,0,.07.06.14.1.2.21.32.19.48-.07.75-.16.16-.33.32-.49.48-.24.23-.43.25-.72.07-.31-.2-.71-.03-.78.33-.06.3-.19.39-.61.45"/>
      <path class="cls-1" d="M19.1,19.62c.52,0,.95-.41.97-.92.01-.52-.42-.95-.95-.96-.53,0-.97.43-.97.95,0,.51.43.93.96.93M20.68,18.68c0,.85-.72,1.54-1.58,1.53-.87,0-1.58-.71-1.57-1.55.01-.84.72-1.52,1.57-1.53.86,0,1.58.7,1.58,1.54"/>
      <path class="cls-1" d="M2.81,19.62c.52,0,.96-.41.97-.92.01-.51-.43-.95-.96-.96-.53,0-.97.43-.97.95,0,.51.43.93.96.93M2.78,20.21c-.87-.02-1.57-.73-1.54-1.57.03-.86.76-1.53,1.61-1.5.86.03,1.55.73,1.53,1.56-.02.85-.75,1.54-1.6,1.51"/>
      <path class="cls-1" d="M8.23,19.62c.52,0,.96-.41.97-.92.01-.51-.42-.95-.95-.96-.53,0-.97.43-.97.94,0,.51.43.93.95.94M8.21,20.21c-.87-.02-1.57-.74-1.54-1.57.03-.86.76-1.53,1.61-1.5.86.03,1.55.73,1.53,1.56-.02.85-.75,1.54-1.6,1.51"/>
      <path class="cls-1" d="M13.68,19.62c.52,0,.95-.42.96-.93,0-.52-.43-.95-.96-.95-.52,0-.95.42-.96.93,0,.52.43.95.96.95M13.68,20.21c-.86,0-1.58-.7-1.58-1.54,0-.84.72-1.54,1.58-1.53.86,0,1.56.69,1.56,1.53,0,.84-.71,1.54-1.57,1.54"/>
      <path class="cls-1" d="M10.28,20.11c-.08,0-.16,0-.24,0-.17-.01-.27-.11-.28-.27-.01-.17.08-.29.26-.31.18-.02.36-.02.54,0,.16.02.26.14.25.3,0,.17-.11.27-.29.29-.08,0-.16,0-.24,0"/>
      <path class="cls-1" d="M11.64,20.11c-.08,0-.16,0-.24,0-.18-.01-.28-.12-.29-.28,0-.16.09-.28.25-.3.18-.02.36-.02.54,0,.17.02.27.14.26.31-.01.16-.11.26-.28.27-.08,0-.16,0-.24,0"/>
      <path class="cls-1" d="M4.86,20.11c-.08,0-.16,0-.24,0-.18,0-.28-.11-.29-.28,0-.17.09-.29.27-.31.17-.02.35-.02.52,0,.17.02.27.14.26.31-.01.17-.12.27-.3.28-.07,0-.14,0-.22,0"/>
      <path class="cls-1" d="M6.2,20.11c-.08,0-.16,0-.24,0-.18-.01-.28-.12-.29-.28,0-.16.09-.28.25-.3.18-.02.36-.02.54,0,.17.02.27.14.26.31-.01.16-.11.26-.28.27-.08,0-.16,0-.24,0"/>
      <path class="cls-1" d="M15.72,20.11c-.09,0-.17,0-.26,0-.17-.02-.26-.12-.27-.28,0-.15.07-.27.23-.29.19-.02.39-.03.58,0,.16.02.25.14.24.3-.01.16-.11.26-.28.27-.08,0-.16,0-.24,0h0Z"/>
      <path class="cls-1" d="M17.07,20.11c-.09,0-.17,0-.26,0-.17-.02-.26-.12-.27-.28,0-.15.07-.27.23-.29.19-.02.39-.02.58,0,.16.02.25.14.24.3-.01.16-.11.26-.28.27-.08,0-.16,0-.24,0h0Z"/>
      <path class="cls-1" d="M11.63,17.25c.08,0,.16,0,.24,0,.17.01.27.11.28.27.01.16-.07.29-.23.31-.19.02-.39.02-.58,0-.16-.02-.25-.15-.23-.31.01-.15.1-.25.26-.26.09,0,.17,0,.26,0h0Z"/>
      <path class="cls-1" d="M6.21,17.25c.08,0,.16,0,.24,0,.17.01.26.12.28.27.01.15-.07.28-.22.29-.2.02-.4.02-.6,0-.15-.02-.23-.14-.22-.29.01-.16.1-.26.27-.28.09,0,.17,0,.26,0"/>
      <path class="cls-1" d="M10.31,17.25c.06,0,.12,0,.17,0,.2.01.33.13.33.29,0,.17-.13.29-.33.3-.13,0-.26,0-.39,0-.21,0-.35-.14-.34-.31,0-.17.14-.28.34-.28.07,0,.14,0,.22,0"/>
      <path class="cls-1" d="M4.85,17.25c.08,0,.16,0,.24,0,.18.01.28.12.29.29,0,.16-.09.27-.26.29-.17.02-.35.02-.52,0-.17-.02-.28-.13-.27-.3,0-.18.12-.28.31-.29.07,0,.14,0,.22,0h0Z"/>
      <path class="cls-1" d="M15.72,17.25c.08,0,.16,0,.24,0,.18.01.28.12.29.29,0,.16-.09.28-.25.29-.18.02-.36.02-.54,0-.16-.02-.26-.13-.26-.29,0-.17.1-.28.29-.29.08,0,.16,0,.24,0"/>
      <path class="cls-1" d="M17.07,17.85c-.09,0-.19,0-.28-.02-.16-.03-.26-.14-.25-.3.01-.17.11-.27.29-.28.15,0,.3,0,.45,0,.18,0,.29.11.3.28.01.18-.1.29-.28.31-.08.01-.16,0-.24,0h0Z"/>
      <path class="cls-1" d="M15.3,3.7c0,.8.66,1.45,1.47,1.45s1.48-.65,1.48-1.44c0-.79-.67-1.45-1.48-1.45-.82,0-1.48.64-1.48,1.44M14.69,3.7c0-1.13.93-2.04,2.08-2.04,1.15,0,2.1.93,2.09,2.05,0,1.12-.95,2.03-2.1,2.03-1.15,0-2.08-.91-2.08-2.04"/>
    </g>
  </g>
</svg>