<?xml version="1.0" encoding="UTF-8"?>
<svg id="Layer_2" data-name="Layer 2" xmlns="http://www.w3.org/2000/svg" viewBox="0 0 21.32 22.6">
  <defs>
    <style>
      .cls-1 {
        fill: #231f20;
        stroke-width: 0px;
      }
    </style>
  </defs>
  <g id="Layer_1-2" data-name="Layer 1">
    <g>
      <path class="cls-1" d="M19.19,10.54c0-.2-.17-.37-.36-.37-.19,0-.35.18-.35.38,0,.2.17.37.36.37.19,0,.35-.18.35-.38M2.84,10.55c0-.2-.16-.38-.35-.38-.19,0-.36.16-.36.37,0,.2.16.38.35.38.19,0,.36-.17.36-.37M17.41,1.14c0-.2-.15-.38-.35-.38-.19,0-.36.16-.36.37,0,.2.15.38.35.38.19,0,.36-.16.36-.37M4.62,1.13c0-.2-.16-.37-.36-.37-.19,0-.35.17-.35.38,0,.2.16.37.36.37.19,0,.35-.17.35-.38M12.43,18.1h-3.53v2.23h3.53v-2.23ZM16.34,21.11H4.99v.72h11.35v-.72ZM12.08,3.79h-2.84v.26c0,1.03.01,2.07,0,3.1,0,.3.14.44.32.6.02-.02.03-.02.03-.02,0-.17,0-.34,0-.52,0-.28.13-.42.39-.43.45,0,.9,0,1.35,0,.25,0,.38.15.39.41,0,.18,0,.37,0,.55.03.01.05.02.08.03.09-.16.26-.31.26-.47.02-1.17.01-2.34.01-3.52M8.42,12.44c.16.16.32.32.49.49.25-.36.49-.54.96-.34.49.21.43.57.44.94h.7c-.05-.43,0-.73.45-.94.48-.22.69.07.97.34.17-.19.32-.36.48-.54-.27-.28-.53-.48-.33-1,.2-.51.51-.5.91-.47v-.74c-.71-.08-.71-.08-.97-.72-.17-.41.21-.53.34-.77-.16-.17-.31-.35-.48-.53-.25.29-.46.54-.94.34-.49-.21-.45-.56-.44-.95h-.69c-.07.3.12.66-.25.83-.2.09-.43.24-.62.21-.21-.03-.38-.25-.58-.38-.15.15-.3.31-.48.49.27.27.52.49.32.99-.2.51-.52.49-.9.47v.79c.59-.2.8.19.96.67.14.41-.22.53-.37.81M.72,17.31h19.88v-.72H.72v.72ZM7.1,10.93s-.08,0-.12,0c-1.11,0-2.22,0-3.33,0-.15,0-.18.08-.24.19-.24.45-.73.66-1.2.53-.47-.13-.79-.57-.79-1.09,0-.52.32-.96.79-1.09.47-.13.97.08,1.19.53.08.16.16.18.31.18,1.05,0,2.1,0,3.15,0h.24c0-.11,0-.19,0-.27,0-.35.12-.48.46-.48.15,0,.3,0,.45,0,.01-.02.03-.05.04-.07-.13-.12-.26-.23-.37-.36-.19-.21-.19-.4,0-.62.23-.25.48-.49.7-.75.07-.09.13-.23.13-.34,0-1.09,0-2.18,0-3.27,0-.07,0-.15,0-.22H.73v12.02h19.87V3.78h-7.79s-.01.04-.01.06c0,.83,0,1.66,0,2.49,0,.38-.09.8.03,1.12.13.33.48.56.73.83.02.02.03.03.05.05.23.25.23.43,0,.68-.11.12-.22.23-.35.38q.86.06.99.76s.05,0,.08,0c1.12,0,2.24,0,3.35,0,.13,0,.17-.07.23-.17.24-.46.72-.68,1.19-.55.48.13.8.56.81,1.08,0,.53-.32.97-.8,1.11-.47.13-.96-.08-1.19-.54-.07-.14-.15-.18-.29-.18-1.07,0-2.13,0-3.2,0h-.21c0,.09,0,.16,0,.23,0,.41-.11.52-.51.52h-.41s-.03.06-.04.08c.12.11.25.21.37.33.21.22.2.41,0,.63-.29.32-.59.64-.89.95-.23.24-.4.24-.63,0-.11-.12-.22-.23-.38-.4,0,.25,0,.43,0,.61,0,.28-.14.42-.4.42-.44,0-.87,0-1.31,0-.29,0-.42-.14-.42-.45,0-.17,0-.35,0-.52-.02,0-.04-.02-.07-.02-.1.12-.21.25-.32.36-.22.23-.4.23-.61,0-.3-.31-.6-.63-.9-.95-.22-.24-.22-.42,0-.67.11-.12.22-.24.34-.37-.27-.03-.52,0-.74-.08-.29-.11-.18-.42-.21-.69M8.16,20.34v-2.26h-.26c-2.46,0-4.92,0-7.37,0-.43,0-.53-.1-.53-.55V3.55c0-.43.1-.54.51-.54h8v-1.49c-.06,0-.12-.01-.19-.01-.95,0-1.91,0-2.86,0-.13,0-.21.03-.27.16-.24.47-.73.69-1.21.55-.47-.13-.79-.58-.79-1.09,0-.51.32-.96.79-1.09.48-.13.97.08,1.2.56.07.14.15.16.28.16,1.06,0,2.12,0,3.18,0,.52,0,.59.08.59.62v1.63h2.84v-.84c0-.31,0-.63,0-.94,0-.34.12-.47.44-.47,1.1,0,2.21,0,3.31,0,.15,0,.23-.03.31-.19.23-.45.73-.66,1.2-.53.46.13.78.57.79,1.07,0,.52-.31.97-.77,1.1-.47.14-.97-.06-1.2-.51-.08-.15-.16-.2-.32-.2-1,0-2,0-3.02,0v1.51h7.98c.44,0,.53.1.53.57v13.94c0,.46-.1.56-.53.56-2.45,0-4.9,0-7.35,0h-.28v2.26h.23c1.07,0,2.13,0,3.2,0,.35,0,.47.12.47.49,0,.43,0,.86,0,1.29,0,.34-.12.48-.44.48-3.97,0-7.95,0-11.92,0-.3,0-.43-.14-.43-.46,0-.45,0-.89,0-1.34,0-.32.13-.46.43-.46,1.07,0,2.13,0,3.2,0h.27Z"/>
      <path class="cls-1" d="M4.27,7.91c.6,0,1.17-.01,1.73,0,.12,0,.27.1.34.2.05.08.04.27-.01.36-.06.09-.2.17-.31.17-.69.02-1.39.01-2.09,0-.25,0-.38-.16-.38-.44,0-.89,0-1.77,0-2.66v-.29h-.32c-.47,0-.95,0-1.42,0-.24,0-.4-.16-.39-.38,0-.21.15-.37.38-.37.7,0,1.39,0,2.09,0,.25,0,.38.16.38.44,0,.89,0,1.77,0,2.66v.29Z"/>
      <path class="cls-1" d="M17.77,5.27v2.83c0,.46-.1.56-.54.56-.62,0-1.24,0-1.86,0-.28,0-.44-.14-.44-.38,0-.24.16-.38.44-.38.55,0,1.11,0,1.69,0v-.26c0-.88,0-1.76,0-2.63,0-.37.12-.49.47-.49.64,0,1.29,0,1.93,0,.28,0,.44.14.44.37,0,.24-.16.38-.44.38-.55,0-1.11,0-1.69,0"/>
      <path class="cls-1" d="M10.66,11.3c.38,0,.71-.34.71-.74,0-.41-.31-.75-.7-.76-.39,0-.72.34-.72.75,0,.41.32.75.71.75M12.08,10.56c0,.83-.65,1.5-1.44,1.5-.78,0-1.41-.68-1.41-1.51,0-.83.64-1.51,1.42-1.51.79,0,1.42.68,1.42,1.52"/>
    </g>
  </g>
</svg>