<?xml version="1.0" encoding="UTF-8"?>
<svg id="Layer_2" data-name="Layer 2" xmlns="http://www.w3.org/2000/svg" viewBox="0 0 21.32 21.38">
  <defs>
    <style>
      .cls-1 {
        fill: #231f20;
        stroke-width: 0px;
      }
    </style>
  </defs>
  <g id="Layer_1-2" data-name="Layer 1">
    <path class="cls-1" d="M3.42,5.54h-.67v.49c.23-.06.44-.12.67-.19v-.3ZM8.93,5.53v.3c.23.06.44.12.66.18v-.49h-.66ZM7.19,13.14v-1.61c-.21.32-.4.6-.58.88.19.24.38.48.58.73M5.75,12.41c-.2-.29-.38-.57-.59-.89v1.63c.21-.27.4-.5.59-.74M3.42,6.57c-.4.02-.68.31-.68.69,0,.37.3.66.68.66v-1.35ZM8.93,7.93c.4-.02.68-.32.67-.69,0-.37-.3-.66-.67-.66v1.35ZM2.74,20.71h1.7v-.69c-.29,0-.57.02-.85,0-.28-.02-.56-.07-.85-.11v.81ZM5.16,20.69h2.03v-.66h-2.03v.66ZM5.85,3.44h.66V.71h-.66v2.73ZM15.1,17.95c-.21,0-.43,0-.64,0-.26,0-.39.15-.38.41.02.53.5.97,1.04.97.53,0,.99-.45,1.02-.97,0-.25-.12-.4-.37-.4-.22,0-.44,0-.66,0M5.84,19.33c.68,0,1.35,0,2.01,0,.24,0,.39-.14.39-.34,0-.21-.15-.35-.4-.35-.2,0-.41,0-.63,0,0-.13.02-.25,0-.34-.03-.1-.09-.27-.16-.28-.25-.03-.53-.07-.76,0-.18.06-.37.28-.43.47-.07.25-.02.54-.02.83M6.18,11.8c.25-.38.47-.76.74-1.09.24-.3.26-.57.1-.9-.05-.11-.1-.15-.22-.15-.33,0-.66,0-.99,0-.42,0-.42,0-.54.4-.03.1-.08.23-.04.3.3.48.62.94.94,1.44M11.66,18.7c-.47-.13-.91-.24-1.35-.36v2.36h1.35v-2ZM9.52,3.45c-.17-1.21-1.26-2.34-2.3-2.56v2.56h2.3ZM5.13,3.45V.88c-1.18.3-2.19,1.53-2.29,2.57h2.29ZM10.29,4.16H2.07v.66h8.22v-.66ZM15.81,15.86h2.72v-3.42h-2.72v3.42ZM6.18,12.98c-.32.4-.62.77-.91,1.15-.07.09-.12.21-.12.32,0,1.07,0,2.14,0,3.21,0,.06,0,.12,0,.17.16.1.26.05.36-.07.31-.37.69-.57,1.18-.52.16.02.32.02.49.03,0-.02.01-.04.01-.06,0-.95,0-1.9,0-2.84,0-.06-.02-.13-.06-.18-.31-.4-.63-.8-.97-1.22M20.48,16.58h-10.75s.02.08.03.11c.31.66.82,1.12,1.54,1.2.68.08,1.37.04,2.05.05.05,0,.11-.07.14-.12.21-.37.52-.56.95-.56.44,0,.87,0,1.31,0,.42,0,.73.2.95.56.04.06.13.12.21.12.55,0,1.1.01,1.65,0,.46,0,.88-.16,1.25-.45.3-.24.53-.53.67-.92M11.69,15.86h3.41v-4.8h-3.41v4.8ZM8.24,5.54h-4.11c0,.85-.02,1.69,0,2.53.02.51.48.9,1,.91.69,0,1.39,0,2.08,0,.57,0,1.01-.46,1.02-1.04,0-.29,0-.58,0-.86,0-.51,0-1.02,0-1.54M13.06,6.92v3.44h2.73v1.36h2.05v-4.8h-4.78ZM7.91,10.82v7.11c.6.09.99.44,1,.95,0,.22-.06.46-.16.65-.17.32-.49.45-.84.49v.66h1.7c0-.98,0-1.94,0-2.9,0-.07-.06-.16-.11-.22-.39-.49-.57-1.05-.62-1.69h1.26c-.4-1.01-.79-1.99-1.18-2.98.23-.09.43-.17.64-.25.23.57.44,1.12.66,1.66.22.53.4,1.07.65,1.59.03,0,.05-.02.08-.03v-.21c0-.49-.05-.98.01-1.46.09-.74-.2-1.29-.68-1.79-.08-.08-.15-.17-.23-.25-.61-.61-1.33-1.05-2.17-1.33M4.45,10.82c-.13.05-.24.08-.35.13-1.95.77-3.49,2.72-3.41,5.31.03,1,.44,1.81,1.21,2.44.97.79,2.11.64,3.24.63v-.75c-.41-.09-.82-.17-1.22-.28-.97-.25-1.61-.86-1.79-1.85-.11-.63-.07-1.28-.09-1.93h.71c0,.47,0,.93,0,1.39,0,.99.71,1.73,1.7,1.78v-6.87ZM10.97,10.36h1.37v-4.14h1.38v-1.37h.69v1.35h.68v-2.05h.69v2.04h.68v-1.35h.69v1.36h1.37v5.52h.69v4.13s.04.02.06.03c.04-.06.09-.12.11-.18.37-.93.74-1.87,1.12-2.8.03-.09.07-.17.11-.27.21.08.41.16.63.25-.39.99-.78,1.97-1.18,2.98h1.24c-.06,1.37-.97,2.39-2.13,2.67-.25.06-.52.08-.78.09-.54.01-1.07,0-1.6,0-.39.98-.95,1.41-1.78,1.38-.76-.03-1.33-.51-1.62-1.38h-1.05v2.74H2.06c0-.39-.02-.78,0-1.18.03-.4-.07-.65-.44-.89C.55,18.59.01,17.54,0,16.25c-.02-2.56,1.07-4.47,3.31-5.71.27-.15.57-.28.87-.36.32-.08.47-.26.49-.59-.38-.13-.72-.34-.94-.7-.11-.19-.23-.26-.46-.28-.69-.06-1.21-.65-1.22-1.36,0-.56,0-1.12,0-1.68,0,0,0-.01-.03.02-.17-.12-.36-.21-.51-.35-.17-.17-.15-.41-.14-.63,0-.09,0-.19,0-.28,0-.58.18-.79.73-.89C2.51,1.21,4.45-.09,6.36,0c1.76.08,3.47,1.29,3.88,3.43.1.02.21.03.3.07.27.11.42.32.44.61.01.19,0,.39,0,.58,0,.51-.17.73-.69.85,0,.53,0,1.07,0,1.61,0,.87-.53,1.42-1.39,1.48-.06,0-.14.04-.17.09-.23.43-.59.71-1.06.87.05.27.11.47.44.57,1.03.31,1.9.89,2.63,1.68.07.07.13.15.23.26v-1.74Z"/>
  </g>
</svg>