<?xml version="1.0" encoding="UTF-8"?>
<svg id="Layer_2" data-name="Layer 2" xmlns="http://www.w3.org/2000/svg" viewBox="0 0 20.02 17.68">
  <defs>
    <style>
      .cls-1 {
        fill: #231f20;
        stroke-width: 0px;
      }
    </style>
  </defs>
  <g id="Layer_1-2" data-name="Layer 1">
    <g>
      <path class="cls-1" d="M17.24,4.92c0,.31-.01.6,0,.89.02.5.42.93.9.99.55.07,1.08-.22,1.2-.73.09-.37.07-.76.1-1.15h-2.2ZM.63,4.92c0,.33-.02.65,0,.96.04.47.44.87.91.92.53.06,1-.21,1.18-.68.14-.39.05-.79.07-1.2H.63ZM14.47,4.92c0,.3,0,.59,0,.88.02.48.36.88.84.99.46.11.96-.11,1.19-.53.24-.43.12-.88.15-1.34h-2.18ZM3.39,4.92c0,.32-.02.64,0,.94.05.54.49.92,1.03.94.54.02,1.02-.34,1.1-.87.05-.33,0-.67,0-1.02h-2.15ZM11.7,4.92c0,.33-.02.65,0,.96.04.46.44.86.89.92.51.07,1.01-.19,1.19-.64.16-.4.08-.82.09-1.23h-2.17ZM8.95,4.92c0,.36-.04.7,0,1.03.06.45.47.81.91.85.51.05.97-.2,1.15-.65.16-.4.07-.82.08-1.23h-2.15ZM6.16,4.92c0,.07,0,.13,0,.2,0,.26,0,.51.02.77.07.53.49.89,1.02.92.54.02,1.02-.31,1.1-.83.06-.34.01-.7.01-1.05h-2.15ZM16.41,2.32c.24.66.47,1.3.71,1.92.02.05.12.09.18.09.49,0,.98,0,1.46,0h.47c-.34-.67-.66-1.3-.99-1.94-.02-.04-.09-.08-.14-.08-.55,0-1.11,0-1.69,0M3.61,2.32c-.56,0-1.09,0-1.62,0-.13,0-.2.05-.25.16-.28.56-.57,1.12-.86,1.68-.03.05-.05.1-.08.18.51,0,.99,0,1.48,0,.19,0,.44.06.57-.03.13-.09.16-.34.22-.52.18-.48.35-.96.53-1.47M14.41,4.32h2.08s0-.05,0-.07c-.22-.61-.44-1.22-.67-1.83-.02-.05-.12-.1-.19-.11-.36-.01-.73,0-1.09,0h-.57c.13.62.26,1.21.39,1.8.01.07.03.13.05.21M5.62,4.32c.15-.67.29-1.33.44-2-.6,0-1.16,0-1.73,0-.05,0-.11.07-.13.13-.13.35-.26.7-.39,1.05-.1.27-.19.54-.3.83h2.11ZM13.8,4.33c-.15-.68-.29-1.34-.44-1.99h-1.84c.05.67.1,1.33.15,1.99h2.13ZM6.66,2.33c-.15.67-.29,1.33-.44,2h2.13c.05-.67.1-1.33.14-2h-1.84ZM10.93,2.32h-1.43q-.4,0-.44.39s0,.06-.01.1c-.04.5-.07,1.01-.11,1.52h2.13c-.05-.67-.1-1.32-.14-2M3.12,15.37h3.28v-6.36h-3.28v6.36ZM19.43,17.09c0-.21,0-.41,0-.6,0-.43-.09-.52-.53-.52-5.93,0-11.85,0-17.78,0-.07,0-.14,0-.21,0-.16.02-.29.11-.3.26-.02.28,0,.57,0,.85h18.82ZM7,15.37h11.03v-7.82s0-.07,0-.1c-.02-.04-.04-.1-.08-.11-.42-.1-.74-.33-1-.66-.81,1.01-2.15.86-2.78,0-.35.45-.8.71-1.39.71-.58,0-1.03-.26-1.38-.7-.66.88-2,.99-2.78,0-.67.89-2.01.97-2.77,0-.35.45-.81.7-1.39.7-.58,0-1.03-.26-1.38-.71-.24.31-.52.54-.89.63-.15.04-.2.1-.2.26,0,2.54,0,5.07,0,7.61,0,.07,0,.13,0,.2h.51v-.24c0-2.02,0-4.03,0-6.05,0-.47.2-.67.68-.67,1.03,0,2.06,0,3.09,0,.53,0,.72.19.72.7v6.25ZM18.61,15.39c.2,0,.36,0,.52,0,.47.02.85.38.88.85.02.32.01.64,0,.96-.01.29-.19.45-.49.47-.06,0-.13,0-.2,0H.69c-.06,0-.13,0-.2,0-.29-.02-.47-.19-.48-.47-.01-.32-.01-.64,0-.96.02-.47.41-.82.88-.85.16,0,.32,0,.52,0v-7.83c0-.1.02-.19-.13-.23C.48,7.1.04,6.51.02,5.68c0-.33,0-.66,0-.98,0-.1.04-.21.09-.31.38-.76.78-1.53,1.16-2.29.04-.09.07-.19.07-.29,0-.37,0-.73,0-1.1C1.35.25,1.59,0,2.06,0c.4,0,.79,0,1.19,0,.25,0,.39.1.39.28,0,.19-.14.3-.4.3-.36,0-.72,0-1.07,0h-.22v1.13h16.13V.59h-.26c-4.3,0-8.6,0-12.9,0-.1,0-.2,0-.29-.03-.14-.04-.23-.16-.19-.29.03-.1.14-.18.23-.25.05-.03.14-.01.21-.01C9.22,0,13.56,0,17.91,0c.54,0,.8.23.76.76-.07.82.11,1.56.55,2.27.27.44.48.91.7,1.37.05.1.08.22.08.33,0,.39,0,.78-.02,1.17-.05.65-.53,1.22-1.16,1.4-.15.04-.21.09-.21.26,0,2.54,0,5.07,0,7.61v.21Z"/>
      <path class="cls-1" d="M8.2,9v4.53h8.43v-4.53h-3.36c-.07,0-.13,0-.2,0-.16-.02-.25-.11-.26-.26,0-.16.07-.26.23-.29.06-.01.13-.02.19-.02,1.11,0,2.23,0,3.34,0,.45,0,.66.21.66.65,0,1.47,0,2.94,0,4.41,0,.45-.2.64-.66.64-2.77,0-5.55,0-8.32,0-.44,0-.65-.2-.65-.63,0-1.48,0-2.95,0-4.43,0-.44.21-.64.66-.64,1.11,0,2.21,0,3.32,0,.08,0,.18,0,.23.03.08.07.18.19.17.28,0,.09-.13.19-.22.25-.05.04-.14.01-.21.01-1.04,0-2.08,0-3.13,0h-.24Z"/>
      <path class="cls-1" d="M5.9,12.1c0,.1.01.19,0,.29-.02.16-.13.25-.3.25-.15,0-.26-.1-.28-.25-.01-.19-.02-.39,0-.58.01-.16.13-.26.29-.26s.27.1.29.26c.01.09,0,.19,0,.29h0"/>
    </g>
  </g>
</svg>