<?xml version="1.0" encoding="UTF-8"?>
<svg id="Layer_2" data-name="Layer 2" xmlns="http://www.w3.org/2000/svg" viewBox="0 0 22.03 19.44">
  <defs>
    <style>
      .cls-1 {
        fill: #231f20;
        stroke-width: 0px;
      }
    </style>
  </defs>
  <g id="Layer_1-2" data-name="Layer 1">
    <g>
      <path class="cls-1" d="M12.91,4.38c.82-1,1.32-2.16,1.47-3.53-1.3.17-2.41.69-3.36,1.55.63.66,1.25,1.31,1.89,1.98M8.95,6.56c1.29-.16,2.4-.69,3.33-1.53-.63-.67-1.25-1.32-1.86-1.98-.71.71-1.46,2.46-1.47,3.51M17.86,9.55c.64.67,1.26,1.32,1.89,1.98.82-1,1.32-2.16,1.47-3.52-1.31.17-2.42.69-3.36,1.54M17.26,10.18c-.84,1.01-1.34,2.18-1.49,3.53,1.03-.02,2.89-.9,3.35-1.57-.62-.65-1.24-1.3-1.87-1.96M14.96,13.77c.44-2.22.6-2.62,1.71-4.14-.55-.57-1.09-1.14-1.6-1.68-1.33,1.4-2.68,2.81-4.05,4.24,1.11,1,2.42,1.53,3.93,1.58M19.75,3.07c-1.36,1.43-2.72,2.84-4.05,4.24.51.54,1.05,1.11,1.59,1.68,1.13-1.04,2.46-1.64,3.95-1.81.07-1.31-.68-3.34-1.5-4.11M12.85,5.6c-1.12,1.02-2.44,1.62-3.95,1.79.04,1.59.55,2.97,1.52,4.14,1.37-1.43,2.72-2.85,4.05-4.25-.52-.55-1.06-1.11-1.62-1.69M15.05,6.66c1.36-1.42,2.71-2.84,4.07-4.27-1.12-1.01-2.44-1.54-3.95-1.58-.16,1.6-.74,2.98-1.73,4.16.55.58,1.09,1.14,1.61,1.68M15.08,14.58c-3.84,0-6.96-3.27-6.96-7.29C8.12,3.27,11.24,0,15.08,0c3.84,0,6.96,3.26,6.96,7.29,0,4.02-3.12,7.29-6.96,7.29"/>
      <path class="cls-1" d="M7.67,16.2c-2.13,0-4.25,0-6.38,0-.82,0-1.29-.49-1.29-1.34C0,13.05,0,11.24,0,9.44c0-.85.47-1.34,1.27-1.34,1.71,0,3.43,0,5.14,0,.06,0,.13,0,.19,0,.21.03.36.2.35.41-.01.22-.13.36-.34.39-.07.01-.14,0-.22,0-1.7,0-3.4,0-5.1,0-.41,0-.53.13-.53.56,0,1.79,0,3.57,0,5.36,0,.43.12.55.53.55h12.8c.4,0,.58.12.58.4,0,.28-.18.41-.57.41h-6.45"/>
      <path class="cls-1" d="M10.44,18.22c0-.22-.18-.4-.39-.4-.21,0-.38.18-.38.4,0,.22.18.4.38.4.21,0,.38-.19.38-.4M5.39,18.63h-3.29c-.07,0-.15,0-.22,0-.21-.04-.33-.17-.34-.4,0-.22.12-.36.33-.4.08-.02.16,0,.24,0,2.2,0,4.4,0,6.59,0,.16,0,.25-.04.34-.2.44-.82,1.56-.82,2,0,.08.15.16.19.32.19,1.43,0,2.87,0,4.3,0,.08,0,.16,0,.24,0,.21.04.33.18.32.41,0,.21-.12.34-.32.39-.08.02-.16,0-.24,0-1.43,0-2.87,0-4.3,0-.15,0-.24.03-.32.19-.44.83-1.55.84-2,.02-.09-.17-.19-.21-.36-.2-1.1,0-2.21,0-3.31,0"/>
      <path class="cls-1" d="M6.29,11.6v1.1c.35-.18.68-.36,1.05-.55-.38-.2-.7-.36-1.05-.55M5.51,12.15c0-.19,0-.39,0-.58.03-.58.55-.95,1.06-.73.41.18.8.39,1.18.62.5.31.49,1.06,0,1.36-.37.23-.77.43-1.16.61-.52.23-1.05-.14-1.07-.73,0-.18,0-.37,0-.56"/>
      <path class="cls-1" d="M16.23,15.79c0,.22-.17.4-.38.41-.22,0-.4-.19-.39-.41,0-.22.18-.4.39-.39.21,0,.38.18.38.4"/>
      <path class="cls-1" d="M.38,18.62c-.21,0-.38-.19-.37-.41,0-.23.19-.41.41-.4.21.01.37.2.36.42,0,.22-.19.39-.4.39"/>
    </g>
  </g>
</svg>