<?xml version="1.0" encoding="UTF-8"?>
<svg id="Layer_2" data-name="Layer 2" xmlns="http://www.w3.org/2000/svg" viewBox="0 0 21.32 21.57">
  <defs>
    <style>
      .cls-1 {
        fill: #231f20;
        stroke-width: 0px;
      }
    </style>
  </defs>
  <g id="Layer_1-2" data-name="Layer 1">
    <path class="cls-1" d="M10.11,6.56c.26-.23.48-.42.73-.64h-.65c-.03.2-.05.39-.08.64M4.68,2.97c-.45-.05-.91-.1-1.39-.15,0,.15,0,.28,0,.41,0,.14.04.19.18.18.3,0,.59,0,.89,0q.39,0,.34-.4s0-.01-.02-.04M13.01,16.3c-.55.3-1.07.59-1.59.87,0,.01,0,.02.01.03h1.69c-.04-.3-.08-.59-.12-.91M11.69,6c-.49.43-.95.84-1.42,1.26.58.38,1.14.75,1.73,1.13-.1-.81-.2-1.58-.31-2.39M11.74,8.98c-.61-.4-1.18-.78-1.79-1.18-.1.79-.2,1.54-.3,2.34.72-.4,1.39-.78,2.09-1.17M12.14,9.48c-.74.41-1.43.8-2.16,1.21.84.41,1.64.8,2.47,1.21-.1-.82-.2-1.59-.31-2.41M12.03,12.4c-.86-.42-1.68-.82-2.52-1.23-.11.84-.21,1.63-.31,2.46.95-.41,1.87-.81,2.83-1.23M12.89,15.36c-.11-.86-.21-1.67-.32-2.51-.96.42-1.89.82-2.87,1.25,1.09.43,2.12.83,3.19,1.25M2.2,18.64c-.25.78-.49,1.53-.74,2.29h2.81c-.26-.82-.52-1.62-.78-2.43-.43.21-.85.25-1.3.14M8.96,3.44s-.03.06-.03.07c0,.39,0,.78,0,1.18q0,.57.57.57c1.07,0,2.15,0,3.22,0,.08,0,.22-.07.22-.11.02-.42.01-.84.01-1.27-1.34-.15-2.66-.29-3.99-.43M9.08,14.55c-.12.9-.23,1.78-.34,2.67.4,0,.76,0,1.12,0,.11,0,.22-.03.31-.08.66-.36,1.32-.72,1.97-1.08.09-.05.19-.1.33-.18-1.15-.45-2.26-.89-3.39-1.33M7.87,19.07h6.12v-1.2h-6.12v1.2ZM6.68,20.92h8.5v-1.2H6.68v1.2ZM4.33,4.06v8.74c.08-.04.14-.07.2-.1.65-.29,1.28-.23,1.84.21.83.66.89,1.86.14,2.64-.78.8-1.57,1.59-2.35,2.39-.06.06-.12.18-.1.24.27.88.56,1.76.85,2.64.02.05.08.11.12.11.33,0,.66,0,1.01,0,0-.09,0-.15,0-.22,0-.34,0-.67,0-1.01,0-.38.25-.61.62-.62.18,0,.36,0,.56,0,0-.08.01-.15.01-.22,0-.34,0-.67,0-1.01,0-.46.16-.62.61-.63.09,0,.18,0,.27,0,.48-3.79.97-7.55,1.45-11.33h-.39c-.61,0-.88-.27-.88-.88,0-.54,0-1.08,0-1.64-.99-.11-1.96-.21-2.94-.32-.09.88-.16.94-1.02,1.01M3.7,4.04c-.36.02-.73.04-.89-.31-.13-.29-.13-.63-.2-.98-.24-.03-.53-.06-.83-.09-.36-.03-.47-.24-.3-.56.28-.54.58-1.06,1.07-1.43C3.27.1,4.09-.11,4.99.05c.58.1,1.16.22,1.74.34.22.04.34.2.3.38-.04.19-.19.27-.42.24-.03,0-.06,0-.08-.01-.52-.1-1.03-.21-1.55-.31-1.1-.22-2.15.26-2.69,1.23-.02.04-.04.09-.07.15,4.9.53,9.78,1.06,14.68,1.59v-.62c-.35-.07-.72-.15-1.08-.22-2.59-.51-5.19-1.02-7.78-1.53-.09-.02-.19-.05-.27-.11-.12-.09-.14-.22-.08-.36.07-.15.2-.21.36-.17.7.14,1.4.27,2.1.41,2.28.45,4.56.9,6.84,1.34.08.01.19-.02.25-.07.66-.56,1.31-1.13,1.97-1.69.39-.33.83-.18.92.31.32,1.82.52,3.65.47,5.51-.03,1.22-.18,2.43-.52,3.61-.04.15-.11.28-.27.31-.24.05-.4-.17-.34-.45.13-.58.27-1.16.36-1.75.19-1.25.2-2.51.1-3.76-.09-1.01-.23-2.02-.35-3.03,0-.05-.02-.11-.04-.19-.37.32-.72.62-1.07.92-.26.23-.53.45-.79.69-.07.07-.13.18-.13.28,0,3.26,0,6.51,0,9.77,0,.05,0,.11,0,.19.42-.33.75-.71,1.02-1.13.16-.25.29-.51.44-.77.11-.19.27-.25.43-.17.17.08.23.26.14.45-.48,1-1.13,1.84-2.08,2.44-.13.08-.26.16-.42.07-.16-.09-.16-.25-.16-.4,0-2.99,0-5.98,0-8.97v-.26c-1.11-.12-2.21-.24-3.33-.36v.87c0,.12,0,.24,0,.36-.02.41-.31.7-.73.72-.17,0-.33,0-.53,0,.48,3.78.96,7.54,1.45,11.33.1,0,.2,0,.31,0,.4,0,.57.18.57.58,0,.34,0,.69,0,1.03v.24c.13,0,.23,0,.34,0,.69-.05.89.29.85.87-.02.32,0,.64,0,.98h5.03c.06,0,.13,0,.19,0,.17.03.28.13.28.31,0,.18-.11.28-.28.31-.06,0-.12,0-.19,0H.47c-.06,0-.11,0-.17,0-.18-.02-.3-.15-.3-.31s.12-.3.3-.31c0,0,.01,0,.02,0,.16-.01.37.03.48-.05.11-.09.12-.3.17-.46.2-.63.41-1.27.62-1.9.04-.12.03-.2-.07-.29-.75-.7-.77-1.83-.05-2.57.18-.18.34-.21.49-.07.15.13.13.32-.04.51-.46.5-.46,1.19,0,1.64.45.44,1.13.42,1.61-.05.85-.85,1.69-1.7,2.53-2.56.48-.49.49-1.18.04-1.64-.46-.47-1.14-.45-1.63.04-.49.49-.98.99-1.47,1.49-.04.04-.08.08-.12.12-.15.13-.32.14-.45.01-.13-.13-.13-.32.02-.47.35-.36.7-.72,1.06-1.07.15-.15.21-.3.21-.51,0-2.93,0-5.85,0-8.78v-.28Z"/>
  </g>
</svg>