<?xml version="1.0" encoding="UTF-8"?>
<svg id="Layer_2" data-name="Layer 2" xmlns="http://www.w3.org/2000/svg" viewBox="0 0 19.25 19.44">
  <defs>
    <style>
      .cls-1 {
        fill: #231f20;
        stroke-width: 0px;
      }
    </style>
  </defs>
  <g id="Layer_1-2" data-name="Layer 1">
    <g>
      <path class="cls-1" d="M18.19,11.47c.14-.15.26-.26.36-.39.09-.12.1-.26,0-.36-.08-.07-.22-.13-.32-.12-.11,0-.26.07-.21.25.05.19.11.38.18.62M7.89,1.07c.23.07.41.13.6.18.05.01.11,0,.15-.02.14-.11.16-.32.06-.45-.11-.14-.29-.17-.43-.06-.12.1-.23.22-.38.36M17.5,9.12c.15-.15.29-.26.39-.39.16-.2.05-.46-.18-.51-.18-.04-.43.15-.39.29.05.2.12.4.18.61M10.19,1.76c.23.07.42.13.6.18.04.01.09.03.1.02.08-.1.19-.2.21-.32.02-.08-.06-.23-.14-.28-.08-.05-.25-.06-.32,0-.16.1-.29.25-.46.41M7.6,15.65q.54-.43.3-1.06c-.05-.13-.1-.26-.15-.39-.1-.26-.2-.51-.3-.79-.39.33-.76.64-1.13.95.43.44.85.86,1.28,1.29M3.74,11.72c.45.45.87.88,1.29,1.31.29-.36.6-.73.93-1.12-.57-.22-1.1-.43-1.64-.63-.04-.02-.11,0-.15.03-.16.14-.31.29-.44.42M4.12,1.03c2.27,1.67,4.55,3.36,6.83,5.04.83-.92,1.65-1.82,2.48-2.73-.09-.03-.15-.05-.21-.07-2.77-.83-5.55-1.66-8.32-2.51-.36-.11-.59-.08-.77.27M5.9,13.97c.79-.68,1.58-1.34,2.35-2,2.88-2.47,5.74-4.96,8.44-7.63.63-.63,1.22-1.3,1.64-2.09.16-.3.28-.63.34-.95.09-.46-.24-.77-.7-.71-.19.03-.38.08-.56.16-.51.21-.96.53-1.4.88-.87.69-1.61,1.52-2.36,2.33-2.58,2.76-5.02,5.65-7.44,8.55-.27.32-.54.65-.8.97.17.17.32.33.49.5M18.24,15.27c.33-.19.38-.42.27-.77-.86-2.83-1.68-5.66-2.52-8.49-.01-.04-.02-.07-.04-.13-.91.84-1.8,1.66-2.7,2.5.19.26.37.52.56.78.08.12.12.24.03.37-.11.17-.34.16-.48-.02-.18-.24-.36-.49-.55-.74-.45.4-.9.8-1.35,1.19-1.13.98-2.26,1.97-3.4,2.94-.12.1-.13.18-.08.32.24.6.46,1.2.69,1.8.08.2.05.36-.11.51-.25.23-.48.48-.72.72-.18.18-.33.18-.5,0-1.39-1.4-2.78-2.81-4.17-4.21-.19-.19-.18-.33,0-.52.25-.25.5-.5.74-.75.13-.14.27-.16.44-.09.62.24,1.24.48,1.86.72.1.04.16.03.24-.06,1.34-1.57,2.68-3.13,4.01-4.7.03-.04.06-.08.1-.13-.07-.05-.13-.1-.2-.15-2.25-1.66-4.5-3.32-6.75-4.98-.32-.23-.32-.37-.05-.65.18-.18.36-.35.53-.54.13-.14.27-.18.45-.12.83.26,1.67.5,2.5.76.16.05.27.03.37-.1.11-.13.23-.25.36-.36.34-.33.81-.39,1.17-.14.37.26.48.71.28,1.16,0,.02-.01.03-.02.05.3.17.34.17.57-.07.12-.12.23-.23.35-.35.36-.36.84-.41,1.21-.12.37.29.45.75.21,1.2,0,.01,0,.02-.02.05.05.02.1.04.15.05.68.2,1.36.4,2.03.61.13.04.2.02.3-.07.56-.54,1.11-1.1,1.7-1.6.53-.46,1.13-.84,1.81-1.05.31-.09.63-.13.94-.04.56.17.87.73.78,1.35-.1.61-.39,1.13-.71,1.63-.55.85-1.26,1.56-1.98,2.25-.11.1-.12.19-.08.33.21.68.41,1.37.61,2.05.01.04.03.08.05.14.23-.13.47-.21.73-.15.64.16.91.92.49,1.43-.13.16-.26.31-.42.43-.22.18-.26.37-.12.58.18-.03.35-.09.53-.09.36,0,.62.19.77.51.15.32.12.63-.1.91-.14.18-.31.35-.48.5-.12.11-.13.21-.09.36.25.82.48,1.65.74,2.46.07.23.04.4-.14.56-.18.16-.34.34-.51.51-.26.26-.41.25-.62-.04-1.13-1.56-2.26-3.11-3.39-4.67-.12-.16-.24-.33-.35-.49-.14-.2-.13-.36.03-.46.14-.1.3-.06.43.13.74,1.02,1.48,2.04,2.22,3.06.47.64.93,1.28,1.39,1.92"/>
      <path class="cls-1" d="M3.02,2.17c-.07.11-.1.2-.17.26-.77.78-1.55,1.57-2.33,2.35-.15.15-.33.17-.45.05-.13-.13-.12-.29.04-.45.77-.78,1.55-1.57,2.32-2.35.1-.1.21-.18.35-.1.09.05.14.15.22.24"/>
      <path class="cls-1" d="M14.81,19.44c-.09-.07-.21-.1-.24-.17-.03-.09,0-.2.03-.3.01-.05.07-.09.11-.13.74-.75,1.48-1.49,2.22-2.24.04-.04.09-.09.14-.13.12-.08.25-.08.36.03.11.11.12.23.03.36-.03.04-.06.08-.1.11-.76.77-1.51,1.53-2.27,2.29-.07.07-.17.11-.28.17"/>
      <path class="cls-1" d="M4.24,3.39c-.06.1-.1.2-.16.26-.47.49-.95.97-1.43,1.45-.15.15-.33.16-.45.04-.12-.12-.1-.29.04-.44.48-.49.96-.97,1.45-1.46.1-.1.21-.16.34-.08.08.05.14.15.21.23"/>
      <path class="cls-1" d="M14.58,17.28c-.27,0-.41-.22-.31-.41.02-.03.04-.06.07-.09.49-.49.97-.98,1.46-1.47.02-.02.04-.03.06-.05.13-.09.26-.09.37.02.11.11.12.25.02.38-.09.11-.2.21-.3.31-.38.39-.77.78-1.15,1.16-.07.07-.17.12-.21.15"/>
      <path class="cls-1" d="M4.4,5.68c-.26-.02-.38-.24-.27-.43.03-.05.08-.1.12-.15.31-.31.62-.63.93-.94.16-.16.32-.17.45-.04.13.13.11.29-.05.45-.32.33-.64.66-.97.98-.07.07-.16.1-.21.13"/>
      <path class="cls-1" d="M15.44,13.93c-.07.11-.11.2-.17.26-.31.33-.63.65-.96.97-.16.16-.34.17-.46.04-.12-.13-.1-.29.06-.45.32-.33.65-.65.97-.98.09-.09.21-.17.34-.09.09.05.14.15.22.24"/>
    </g>
  </g>
</svg>