<?xml version="1.0" encoding="UTF-8"?>
<svg id="Layer_2" data-name="Layer 2" xmlns="http://www.w3.org/2000/svg" viewBox="0 0 21.92 17.34">
  <defs>
    <style>
      .cls-1 {
        fill: #231f20;
        stroke-width: 0px;
      }
    </style>
  </defs>
  <g id="Layer_1-2" data-name="Layer 1">
    <g>
      <path class="cls-1" d="M6.51.63h-2.37c-.65,0-1.3,0-1.95,0-.07,0-.17.02-.2.06-.14.21.01.47.27.47,2.55,0,5.09,0,7.64,0,.32,0,.64,0,.96,0,.06,0,.17-.02.17-.04.02-.14.03-.29,0-.43,0-.03-.16-.06-.24-.06-1.43,0-2.85,0-4.28,0M9.38,13.83s.08,0,.12,0c.22.04.31-.06.31-.27,0-.44.07-.88.02-1.31-.39-3.26-3.75-5.27-6.92-4.17-.61.21-1.16.53-1.6.92.08.12.16.22.24.34.12-.12.22-.23.32-.32.23-.21.44-.24.72-.12.05.02.11.04.15.02.2-.07.4-.15.59-.24.04-.02.07-.08.09-.12.09-.26.27-.41.55-.41.49,0,.98,0,1.48,0,.21,0,.41.09.48.29.07.21.22.28.4.34.1.03.19.09.29.12.07.02.15.02.21,0,.27-.11.5-.09.71.11.34.32.67.64,1,.97.21.2.23.43.11.69-.02.04-.04.11-.03.15.07.2.16.39.24.58.02.04.08.08.12.1.3.09.43.3.43.6,0,.37,0,.75,0,1.12,0,.2-.04.39-.06.62M2.83,6.2h2.08V1.81h-2.08v4.39ZM20.07,9.12c0-.41,0-.79,0-1.17,0-.17-.13-.26-.31-.28-.49-.05-.98-.11-1.47-.16-1.5-.16-3-.32-4.5-.48-.45-.05-.9-.09-1.38-.14,0,.46,0,.89,0,1.33,0,.63.29.91.94.91h6.73ZM16.24,16.7c-.81-.59-1.29-1.33-1.48-2.23-.04,0-.06-.01-.08-.01-1.93,0-3.87,0-5.8,0-.19,0-.29.19-.21.36.12.24.1.47-.08.66-.35.35-.7.69-1.06,1.03-.16.15-.37.22-.57.12-.21-.11-.35-.02-.56.08h9.84ZM18.34,10.94c-1.63-.02-2.97,1.26-2.99,2.86-.02,1.56,1.3,2.89,2.9,2.91,1.66.02,3.02-1.25,3.03-2.84.02-1.61-1.29-2.91-2.94-2.93M5.39,8.78c-.41,0-.81,0-1.21,0-.05,0-.1.08-.15.13-.12.11-.23.26-.38.34-.21.12-.45.21-.69.28-.17.04-.36.01-.53.02-.07,0-.16,0-.2.03-.29.26-.57.54-.86.82.18.26.15.49,0,.74-.08.15-.15.3-.2.46-.08.27-.23.46-.53.52,0,.39,0,.78,0,1.17,0,.05.06.13.1.14.21.08.33.22.4.43.05.15.1.3.18.44.15.27.25.53.06.78.33.32.64.62.95.92.22-.15.46-.12.7,0,.18.09.37.15.55.22.21.07.36.18.44.39.02.04.08.1.13.1.41,0,.81,0,1.22,0,.06-.29.25-.45.53-.52.13-.03.26-.09.38-.15.28-.15.56-.26.85-.04.29-.29.57-.55.83-.82.04-.04.04-.14.04-.21,0-.17-.02-.36.02-.52.06-.22.18-.42.26-.63.07-.2.19-.33.39-.41.05-.02.11-.09.11-.14,0-.39,0-.78,0-1.18-.32-.05-.46-.26-.54-.53-.06-.18-.18-.35-.23-.54-.04-.17-.02-.35-.03-.52,0-.07,0-.17-.03-.21-.24-.25-.49-.49-.74-.72-.04-.04-.14-.06-.19-.04-.21.08-.4.07-.6-.03-.16-.08-.32-.16-.49-.2-.29-.08-.51-.22-.57-.53M2.82,7.44c2.1-.58,4.01-.28,5.66,1.1,1.65,1.39,2.25,3.18,1.97,5.27h4.25c.07-1.31.64-2.34,1.79-3.01,1.16-.67,2.37-.64,3.57-.07v-.99h-.27c-2.17,0-4.34,0-6.51,0-.92,0-1.51-.58-1.52-1.47,0-.4,0-.81,0-1.21,0-.07,0-.15-.01-.23h-.26c-1.18,0-2.35,0-3.53,0-.06,0-.13,0-.19,0-.16-.03-.25-.12-.27-.28-.01-.17.08-.28.24-.32.07-.02.14-.01.21-.01,1.15,0,2.3,0,3.45,0h.24c-.01-.06-.02-.1-.03-.13-.43-1.38-.87-2.75-1.3-4.13-.04-.15-.13-.15-.25-.15-1.43,0-2.85,0-4.28,0h-.19v4.42c.25,0,.48,0,.72,0,.2,0,.32.15.32.32,0,.17-.13.29-.32.3-.06,0-.11,0-.17,0-1.02,0-2.04,0-3.06,0h-.24v.6ZM3.05,16.71c-.21-.13-.36-.19-.56-.09-.21.1-.42.03-.59-.13-.35-.33-.69-.66-1.03-1-.19-.19-.22-.41-.11-.65.03-.07.02-.17,0-.24-.02-.09-.08-.16-.11-.25-.07-.18-.12-.34-.36-.41-.2-.06-.29-.26-.29-.47,0-.48,0-.96,0-1.44,0-.25.15-.42.39-.53.08-.03.14-.11.19-.18.05-.07.06-.16.1-.23.09-.18.16-.35.05-.56-.09-.18,0-.37.13-.52.07-.08.15-.15.25-.25-.12-.1-.24-.19-.34-.3-.28-.28-.28-.61.03-.85.39-.29.81-.54,1.2-.82.07-.05.15-.14.15-.21,0-1.9,0-3.8,0-5.71,0-.01,0-.03-.01-.06-.05,0-.1-.01-.15-.02-.39-.05-.66-.33-.67-.72,0-.01,0-.03,0-.04C1.25.27,1.63,0,2.35,0c2.82.02,5.64,0,8.45,0,.63,0,.9.26.9.88,0,.59-.19.82-.77.93.11.34.21.67.31,1,.33,1.05.67,2.11.99,3.16.06.2.14.27.36.29.98.09,1.96.21,2.93.31.05,0,.1,0,.18,0v-.22c0-.67,0-1.35,0-2.02,0-.53.22-.78.77-.86,0-.07.01-.14.01-.21,0-.55,0-1.1,0-1.65,0-.19.06-.33.23-.44.15-.1.28-.21.43-.31.17-.11.34-.09.45.05.11.14.1.35-.07.44-.39.19-.42.5-.4.87.02.41,0,.83,0,1.24.58.16.74.36.74.93,0,.14,0,.28,0,.42-.02.19-.15.3-.33.29-.18-.01-.29-.11-.3-.29-.01-.17,0-.35,0-.52,0-.12-.05-.17-.18-.17-.7-.04-.7-.04-.7.64v1.9c.29.03.56.06.88.1,0-.15,0-.28,0-.42,0-.23.13-.36.33-.36.19,0,.31.13.31.35,0,.16,0,.32,0,.49.55.06,1.08.12,1.61.17.11.01.23.03.34.04.54.06.89.44.89.97,0,1.01,0,2.01,0,3.02,0,.1.05.22.12.28,1.54,1.5,1.42,3.91-.28,5.24-.05.04-.09.08-.18.15.42,0,.8,0,1.17,0,.21,0,.34.11.36.28.02.16-.1.31-.28.34-.08.01-.16,0-.23,0H.52c-.07,0-.14,0-.21,0-.18-.02-.31-.15-.3-.32.01-.18.12-.28.3-.3.13-.01.26,0,.39,0h2.36"/>
      <path class="cls-1" d="M11.91,12.23c0,.24,0,.48,0,.73,0,.2-.13.33-.31.33-.19,0-.33-.12-.33-.33,0-.51,0-1.01,0-1.52,0-.2.14-.32.32-.32.19,0,.32.13.32.34,0,.26,0,.51,0,.77"/>
      <path class="cls-1" d="M13.52,12.2c0-.24,0-.48,0-.73,0-.22.12-.34.31-.35.19,0,.33.12.33.33,0,.5,0,1,0,1.5,0,.21-.14.34-.33.34-.19,0-.31-.13-.31-.35,0-.25,0-.5,0-.75"/>
      <path class="cls-1" d="M13.04,12.22c0,.24,0,.48,0,.73,0,.22-.13.35-.31.35-.19,0-.33-.13-.33-.36,0-.48,0-.97,0-1.45,0-.23.13-.36.32-.36.2,0,.31.13.32.36,0,.24,0,.48,0,.73"/>
      <path class="cls-1" d="M6.73,12.75c0-1.08-.88-1.95-1.98-1.96-1.12,0-2.02.85-2.03,1.94,0,1.07.9,1.96,2.01,1.96,1.1,0,2-.87,2-1.94M7.37,12.75c0,1.42-1.18,2.56-2.64,2.57-1.46,0-2.66-1.16-2.66-2.58,0-1.43,1.19-2.58,2.66-2.58,1.47,0,2.65,1.15,2.64,2.58"/>
      <path class="cls-1" d="M16.22,13.83c0-.93.64-1.74,1.56-1.98.92-.24,1.89.16,2.36.97.03.06.07.12.09.19.06.17,0,.31-.17.38-.15.07-.29.03-.4-.1-.04-.06-.07-.12-.1-.18-.33-.55-.98-.81-1.62-.65-.62.15-1.07.7-1.08,1.32-.02.65.39,1.21,1.03,1.4.63.19,1.29-.05,1.64-.59.02-.04.04-.07.07-.11.12-.18.28-.24.45-.15.17.09.22.27.1.47-.32.55-.8.9-1.43,1.03-1.29.25-2.5-.71-2.5-1.99"/>
      <path class="cls-1" d="M17.84,13.83c0,.25.22.46.48.46.26,0,.47-.22.47-.47,0-.25-.22-.46-.48-.45-.27,0-.47.2-.47.46M18.31,12.74c.62,0,1.12.48,1.13,1.08,0,.6-.51,1.1-1.13,1.1-.61,0-1.11-.49-1.11-1.09,0-.6.49-1.08,1.11-1.09"/>
      <path class="cls-1" d="M4.73,13.68c.54,0,.97-.42.97-.94,0-.52-.44-.94-.97-.94-.53,0-.96.42-.96.94,0,.53.42.94.97.93M4.73,14.31c-.9,0-1.61-.69-1.61-1.57,0-.86.72-1.56,1.6-1.56.89,0,1.62.71,1.61,1.58,0,.86-.72,1.55-1.61,1.55"/>
    </g>
  </g>
</svg>