<?xml version="1.0" encoding="UTF-8"?>
<svg id="Layer_2" data-name="Layer 2" xmlns="http://www.w3.org/2000/svg" viewBox="0 0 20.02 19.39">
  <defs>
    <style>
      .cls-1 {
        fill: #231f20;
        stroke-width: 0px;
      }
    </style>
  </defs>
  <g id="Layer_1-2" data-name="Layer 1">
    <g>
      <path class="cls-1" d="M7.61,2.86c.29-.28.55-.54.82-.79C7.15.87,5.18.41,3.99.55c1.51.39,2.66,1.25,3.62,2.31M10.34,5.51c1.12.95,1.99,2.08,2.42,3.49.11-1.63-.63-3.37-1.61-4.28-.26.25-.52.51-.81.79M11.3,3.73c-.05-.07-.08-.13-.13-.18-.5-.49-1.01-.98-1.52-1.47-.15-.14-.24-.14-.38,0-.53.51-1.05,1.02-1.58,1.52-.13.12-.14.23,0,.36.51.49,1.02.99,1.53,1.48.13.12.24.13.37,0,.53-.51,1.06-1.03,1.59-1.54.05-.05.08-.11.12-.18M7.63,4.67c-.06.05-.11.09-.15.13-1.41,1.28-2.83,2.56-4.24,3.85-.78.71-1.56,1.42-2.34,2.12-.26.24-.4.52-.33.86.07.35.29.59.64.7.39.12.72,0,.99-.28,2.07-2.14,4.14-4.29,6.21-6.43.03-.03.06-.08.08-.1-.29-.29-.57-.56-.86-.85M7.24,4.29c-.28-.36-.26-.69,0-1.01-.96-1.09-2.12-1.89-3.56-2.27-.46-.12-.92-.28-1.38-.42-.16-.05-.3-.13-.28-.31.02-.19.17-.24.34-.24.83,0,1.67-.06,2.5,0,1.47.09,2.75.66,3.86,1.6.03.03.07.06.11.09.04-.03.08-.06.12-.09.31-.24.71-.24,1,.03.55.52,1.1,1.06,1.64,1.59.28.28.28.66.02.97-.03.03-.06.07-.07.08.3.42.61.82.87,1.24.6.99.89,2.07.89,3.22,0,.61-.03,1.23-.05,1.84,0,.02,0,.04,0,.06-.01.16-.09.27-.25.29-.16.01-.25-.08-.3-.22-.16-.5-.34-.99-.49-1.5-.34-1.12-.94-2.09-1.82-2.89-.16-.14-.3-.3-.46-.46-.35.27-.7.3-1.07.03-.53.54-1.05,1.08-1.57,1.62-1.58,1.63-3.15,3.26-4.73,4.9-.42.44-.94.61-1.54.44-.58-.17-.94-.56-1.04-1.14-.09-.53.1-.96.5-1.33,1.12-1.02,2.25-2.04,3.37-3.05,1.07-.97,2.14-1.94,3.21-2.91.04-.04.09-.08.14-.12"/>
      <path class="cls-1" d="M19.47,7.71c-.07.03-.13.05-.18.07-.9.38-1.8.75-2.7,1.14-.11.05-.21.13-.28.22-.72,1-1.44,1.99-2.16,3-.11.16-.24.22-.44.22-.94,0-1.89,0-2.83,0-.16,0-.24.05-.33.18-.55.82-1.1,1.63-1.65,2.44-.1.15-.22.22-.42.22-1.08,0-2.15,0-3.23,0-.16,0-.24.05-.31.19-.59,1.1-1.18,2.2-1.78,3.31-.03.05-.05.11-.08.18h16.37V7.71ZM11.18,19.39c-2.81,0-5.62,0-8.42,0-.09,0-.19,0-.26-.04-.15-.07-.18-.22-.09-.39.27-.5.54-1.01.81-1.51.45-.84.91-1.69,1.36-2.53.1-.18.22-.27.44-.26,1.08,0,2.16,0,3.24,0,.14,0,.22-.04.3-.15.55-.82,1.11-1.63,1.66-2.46.11-.16.24-.23.43-.23.95,0,1.9,0,2.85,0,.15,0,.23-.05.32-.16.69-.97,1.39-1.94,2.09-2.9.09-.12.23-.23.37-.29,1.08-.46,2.16-.91,3.24-1.37.35-.15.5-.05.5.32v11.58c0,.31-.08.39-.4.39h-8.44"/>
      <path class="cls-1" d="M10.12,10.93c-.49,0-.98,0-1.46,0-.2,0-.32-.1-.33-.25-.01-.16.12-.28.31-.28.45.01.9.03,1.35.05.54.02,1.08.04,1.62.07.21,0,.33.11.32.28,0,.16-.13.26-.34.25-.49-.02-.97-.04-1.46-.06v-.06"/>
      <path class="cls-1" d="M16.83,6.34c-.06.1-.08.18-.14.24-.62.72-1.25,1.43-1.88,2.15-.14.16-.3.18-.42.08-.13-.1-.13-.26,0-.42.63-.72,1.26-1.44,1.89-2.16.09-.11.21-.17.34-.1.08.04.13.14.2.21"/>
      <path class="cls-1" d="M14.83,5.26c-.1.53-.2,1.09-.31,1.64-.03.16-.14.24-.31.21-.16-.02-.25-.14-.21-.32.08-.47.17-.94.26-1.41.01-.08.03-.16.05-.24.04-.16.15-.23.32-.2.16.03.22.14.21.32"/>
      <path class="cls-1" d="M11.09,9.71c-.11-.04-.17-.05-.23-.08-.45-.21-.9-.42-1.35-.63-.2-.09-.27-.24-.19-.39.07-.14.23-.18.42-.09.46.21.93.43,1.39.65.14.07.22.18.16.32-.04.09-.14.15-.21.22"/>
      <path class="cls-1" d="M11.87,15.29c.19-.18.39-.37.56-.54-.19-.18-.39-.38-.57-.55-.18.18-.38.37-.55.54.18.18.37.37.56.55M11.87,15.89c-.15-.08-.3-.13-.42-.22-.19-.16-.37-.34-.54-.52-.25-.25-.25-.58,0-.83.18-.18.35-.35.54-.52.25-.23.58-.24.84,0,.19.17.37.35.55.54.24.25.24.57,0,.81-.18.18-.36.37-.56.53-.11.09-.27.14-.42.22"/>
      <path class="cls-1" d="M16.17,15.59c-.2.19-.39.37-.56.53.18.18.37.37.53.53.19-.18.39-.37.57-.55-.18-.17-.37-.36-.54-.52M16.14,14.97c.16.08.31.13.42.22.19.16.37.34.54.52.24.25.25.57.01.82-.18.19-.36.36-.55.54-.26.24-.59.23-.86-.01-.18-.17-.35-.34-.53-.51-.25-.25-.25-.58,0-.83.18-.18.35-.36.54-.52.11-.09.26-.14.42-.22"/>
      <path class="cls-1" d="M17.38,12.24c-.13-.14-.26-.28-.35-.38-.16.13-.3.25-.43.36.13.14.26.27.38.4.14-.14.27-.26.4-.38M16.99,11.29c.36,0,.95.58.96.93,0,.35-.6.94-.97.94-.35,0-.94-.57-.95-.91-.01-.36.59-.96.96-.96"/>
      <path class="cls-1" d="M7.5,17.42c.16-.13.31-.25.44-.36-.14-.15-.27-.28-.39-.41-.15.14-.29.27-.43.41.14.13.28.26.39.37M7.54,16.13c.37,0,.96.56.96.92,0,.35-.59.93-.95.94-.36,0-.97-.58-.97-.94,0-.35.6-.92.96-.92"/>
    </g>
  </g>
</svg>