<?xml version="1.0" encoding="UTF-8"?>
<svg id="Layer_2" data-name="Layer 2" xmlns="http://www.w3.org/2000/svg" viewBox="0 0 21.32 20.56">
  <defs>
    <style>
      .cls-1 {
        fill: #231f20;
        stroke-width: 0px;
      }
    </style>
  </defs>
  <g id="Layer_1-2" data-name="Layer 1">
    <g>
      <path class="cls-1" d="M14.11,12.61c.35-.36.65-.67.96-.99.03-.04.07-.09.07-.14,0-.46.01-.92,0-1.39,0-.27-.24-.46-.5-.47-.27,0-.51.19-.51.46-.01.83,0,1.65,0,2.53M16.84,10.28s.01-.08.01-.11c0-1,0-2,0-3,0-.28-.18-.49-.44-.53-.24-.03-.47.11-.55.34-.02.07-.03.15-.03.22,0,1.16,0,2.32,0,3.48,0,.04,0,.07.02.15.28-.33.57-.56,1-.55M17.88,11.01c.21-.26.43-.52.64-.79.03-.04.05-.11.05-.17,0-1.62,0-3.24,0-4.87,0-.31-.21-.53-.5-.53-.3,0-.52.22-.52.54,0,1.74,0,3.48,0,5.22,0,.06.01.13.04.17.09.14.2.28.3.43M14.87,14.72c.06-.08.11-.14.16-.21.62-.77,1.23-1.55,1.88-2.29.26-.3.32-.6.28-.95-.03-.29-.34-.43-.59-.26-.05.04-.09.08-.14.13-1.36,1.41-2.72,2.82-4.09,4.22-.23.23-.34.5-.34.82,0,1.17,0,2.33,0,3.5v.2h3.44c0-.33,0-.66,0-.98-.02-.54.18-.99.58-1.37.82-.78,1.63-1.57,2.45-2.36.07-.07.15-.15.2-.24.62-1.09,1.24-2.19,1.86-3.29.04-.07.07-.15.07-.23,0-1.81,0-3.62,0-5.43,0-.13-.05-.27-.12-.39-.16-.25-.47-.34-.75-.26-.31.09-.49.33-.49.65,0,1.38,0,2.76,0,4.14,0,.18-.05.33-.17.47-.76.93-1.52,1.87-2.28,2.8-.46.57-.93,1.14-1.4,1.72-.18-.14-.36-.27-.53-.41M15.13,9.04v-1.26c0-.21,0-.41,0-.62,0-.83.76-1.37,1.59-1.12.03.01.07.02.13.03,0-.29,0-.56,0-.83,0-.65.37-1.11.98-1.23.57-.12,1.1.18,1.36.77,0,.02.02.03.04.07.32-.17.66-.24,1.02-.15.61.14,1.06.65,1.06,1.25,0,1.88,0,3.76,0,5.64,0,.1-.04.2-.09.29-.65,1.16-1.31,2.32-1.96,3.47-.05.09-.13.18-.21.26-.83.81-1.67,1.62-2.51,2.42-.27.25-.4.54-.39.91.01.41,0,.83,0,1.24,0,.29-.12.41-.42.41-1.32,0-2.65,0-3.97,0-.3,0-.42-.12-.42-.4,0-1.35,0-2.71,0-4.06,0-.43.16-.81.47-1.13.48-.5.96-1,1.45-1.5.1-.1.15-.2.14-.35,0-.96.02-1.92-.01-2.88-.03-.98.92-1.53,1.66-1.21.01,0,.03,0,.06,0"/>
      <path class="cls-1" d="M7.23,12.61c0-.86,0-1.65,0-2.45,0-.32-.22-.54-.52-.54-.3,0-.51.23-.51.55,0,.41,0,.83,0,1.24,0,.07.02.15.07.2.3.32.61.64.96,1M5.51,10.79v-.69c0-.98,0-1.96,0-2.94,0-.31-.22-.53-.51-.53-.29,0-.51.21-.52.52,0,.01,0,.03,0,.04,0,.98,0,1.96,0,2.94,0,.05,0,.09.01.14q.34.04,1.01.52M3.45,11.01c.09-.14.18-.26.26-.39.04-.07.08-.15.08-.22,0-1.73,0-3.47,0-5.2,0-.33-.21-.55-.51-.55-.31,0-.52.22-.52.56,0,1.61,0,3.22,0,4.83,0,.06,0,.13.04.18.21.28.44.54.65.81M5.93,15.12c-.06-.07-.11-.13-.15-.18-1.18-1.45-2.36-2.9-3.54-4.35-.1-.12-.16-.3-.16-.45-.01-1.36,0-2.72-.01-4.08,0-.15-.04-.32-.12-.45-.15-.25-.46-.36-.74-.28-.32.09-.51.34-.51.68,0,1.79,0,3.58,0,5.37,0,.1.04.2.09.29.61,1.08,1.21,2.16,1.83,3.23.05.1.12.19.2.26.78.75,1.55,1.52,2.34,2.25.49.45.74.97.7,1.62-.02.28,0,.56,0,.84h3.44c0-1.22,0-2.42,0-3.62,0-.38-.13-.68-.39-.95-.94-.96-1.87-1.93-2.8-2.89-.43-.44-.86-.89-1.29-1.33-.2-.2-.5-.19-.62.02-.1.16-.06.73.05.87.58.71,1.16,1.42,1.74,2.13.16.2.32.4.49.61-.19.14-.35.27-.54.41M4.48,6.03c.25-.02.48-.07.7-.04.6.08,1.02.56,1.02,1.15,0,.57,0,1.13,0,1.7v.17c.25-.01.49-.07.72-.03.59.09,1,.56,1,1.15,0,.99,0,1.99,0,2.98,0,.16.05.27.16.38.46.46.9.93,1.35,1.39.38.38.56.83.56,1.37-.01,1.28,0,2.57,0,3.85,0,.36-.1.46-.49.46-1.28,0-2.56,0-3.84,0-.38,0-.48-.1-.48-.47,0-.4,0-.8,0-1.2,0-.35-.12-.63-.37-.87-.84-.81-1.68-1.62-2.52-2.43-.08-.08-.16-.18-.22-.28-.65-1.14-1.3-2.29-1.94-3.44-.07-.12-.1-.27-.1-.41,0-1.78.03-3.56-.02-5.35-.03-1.1,1.1-1.83,2.1-1.28.03-.06.06-.12.09-.18.24-.49.78-.76,1.31-.65.57.11.96.56.98,1.11,0,.31,0,.62,0,.92"/>
      <path class="cls-1" d="M10.65,7.83s.04-.01.05-.02c1.25-1.1,2.51-2.18,3.74-3.3.86-.78.92-2.08.2-2.99-.69-.87-1.94-1.12-2.92-.56-.28.16-.52.38-.78.58-.21.16-.34.16-.55,0-.18-.14-.35-.29-.53-.42-.57-.41-1.21-.56-1.91-.38-.89.22-1.46.78-1.68,1.63-.22.86.02,1.62.69,2.23.76.69,1.54,1.36,2.32,2.04.46.4.92.81,1.37,1.2M10.67.89c.38-.33.78-.59,1.25-.75,2.08-.67,4.2,1.05,3.88,3.15-.11.72-.43,1.32-.99,1.81-1.29,1.13-2.57,2.26-3.86,3.39-.21.18-.36.18-.56,0-1.3-1.14-2.6-2.27-3.89-3.42-1.19-1.07-1.32-2.82-.31-4.01,1.06-1.25,2.9-1.42,4.2-.4.09.07.17.14.28.23"/>
    </g>
  </g>
</svg>