<?xml version="1.0" encoding="UTF-8"?>
<svg id="Layer_2" data-name="Layer 2" xmlns="http://www.w3.org/2000/svg" viewBox="0 0 14.49 22.14">
  <defs>
    <style>
      .cls-1 {
        fill: #231f20;
        stroke-width: 0px;
      }
    </style>
  </defs>
  <g id="Layer_1-2" data-name="Layer 1">
    <path class="cls-1" d="M6.74,7.94h1c-.14-.42-.26-.8-.39-1.18-.02-.05-.07-.09-.1-.14-.04.04-.09.07-.11.12-.13.38-.26.77-.4,1.2M7.28,4.88c-.27,0-.49.24-.48.51,0,.26.23.48.49.48.27,0,.49-.23.49-.5,0-.27-.23-.5-.5-.49M6.5,8.68c-.12.38-.26.77-.39,1.18.77.2,1.52.22,2.28.01-.13-.37-.24-.73-.36-1.07-.02-.05-.1-.11-.15-.11-.45,0-.9,0-1.37,0M7.8,15.07c1.09.95,2.15,1.88,3.2,2.81.01-.01.02-.02.03-.03-.48-1.44-.96-2.88-1.45-4.34-.6.53-1.18,1.04-1.79,1.57M6.69,15.07c-.61-.54-1.19-1.04-1.79-1.57-.49,1.47-.97,2.91-1.45,4.35.01,0,.03.01.04.02,1.06-.93,2.12-1.86,3.2-2.8M5.87,10.56c-.23.7-.47,1.39-.68,2.08-.02.05.03.16.08.2.25.23.5.45.75.67.41.36.81.71,1.22,1.07.68-.59,1.34-1.17,1.99-1.75.04-.04.08-.14.06-.19-.22-.68-.45-1.36-.68-2.05-.91.24-1.82.23-2.75-.02M3.65,18.71h7.2c-1.22-1.07-2.4-2.11-3.6-3.16-1.2,1.05-2.38,2.09-3.6,3.16M8.43,7.69c1.05-.51,1.62-1.77,1.34-2.93-.28-1.18-1.36-2.04-2.52-2-1.26.04-2.28.93-2.49,2.18-.18,1.08.42,2.33,1.31,2.7.12-.36.23-.72.36-1.07.06-.16.05-.26-.07-.41-.32-.38-.39-.83-.18-1.3.21-.47.58-.72,1.09-.74.49-.01.94.29,1.13.75.2.47.1.99-.25,1.37-.06.07-.12.19-.1.26.11.39.25.78.38,1.18M5.82,8.4c-2.02-1.1-2.33-3.62-1.06-5.17,1.23-1.5,3.45-1.62,4.82-.24.69.69,1.03,1.54.98,2.53-.06,1.35-.74,2.29-1.88,2.93.14.41.27.8.4,1.19,1.54-.61,3.05-2.5,2.7-4.95-.31-2.18-2.18-3.87-4.36-3.92-2.26-.06-4.18,1.5-4.6,3.78-.44,2.35.93,4.34,2.6,5.06.13-.4.26-.8.4-1.19M9.32,10.37c.23.69.46,1.38.69,2.07.69,2.09,1.39,4.17,2.08,6.26.28.83.55,1.66.82,2.5.05.15.11.21.27.2.29-.01.59,0,.88,0,.25,0,.41.15.41.36,0,.21-.15.37-.4.38-.9,0-1.8,0-2.7,0-.26,0-.43-.16-.42-.38,0-.21.16-.35.42-.36.26,0,.53,0,.83,0-.06-.18-.1-.32-.15-.46-.14-.42-.29-.83-.41-1.25-.05-.17-.12-.22-.3-.22-2.57,0-5.14,0-7.71,0-.2,0-.41,0-.61,0-.05,0-.13.05-.15.09-.21.59-.4,1.19-.62,1.83.32,0,.6,0,.89,0,.22,0,.37.16.37.36,0,.2-.14.35-.36.37-.02,0-.05,0-.07,0-.89,0-1.78,0-2.68,0-.27,0-.43-.16-.42-.38,0-.22.17-.36.44-.36.27,0,.55-.01.82,0,.18,0,.26-.04.32-.23.92-2.8,1.86-5.61,2.79-8.41.24-.72.48-1.44.73-2.17.03-.09.05-.18.09-.28-1.45-.7-2.45-1.81-2.93-3.38-.34-1.12-.31-2.24.06-3.34C3.06,1.39,5.13-.06,7.45,0c2.28.06,4.24,1.64,4.91,3.88.58,1.96-.05,5.14-3.03,6.48"/>
  </g>
</svg>