<?xml version="1.0" encoding="UTF-8"?>
<svg id="Layer_2" data-name="Layer 2" xmlns="http://www.w3.org/2000/svg" viewBox="0 0 22.01 18.71">
  <defs>
    <style>
      .cls-1 {
        fill: #231f20;
        stroke-width: 0px;
      }
    </style>
  </defs>
  <g id="Layer_1-2" data-name="Layer 1">
    <g>
      <path class="cls-1" d="M16.53,16.74h-1.16c-1,0-2,0-3,0-.49,0-.82.36-.76.82.04.37.36.63.81.63,2.74,0,5.49,0,8.23,0,.04,0,.09,0,.13,0,.37-.02.66-.3.69-.65.04-.44-.29-.79-.78-.79-1.39,0-2.77,0-4.16,0M7.18,10.94c1.72,0,3.13-1.38,3.12-3.05-.01-1.68-1.42-3.03-3.15-3.02-1.73,0-3.11,1.37-3.1,3.06,0,1.66,1.42,3.02,3.13,3.02M20.73,16.21v-.23c0-1.56,0-3.12,0-4.68,0-.35-.09-.44-.45-.44-2.5,0-4.99,0-7.49,0-.37,0-.46.09-.46.45,0,1.56,0,3.12,0,4.68,0,.07,0,.14.01.22h8.39ZM11.06,17.56c0-.48.17-.87.58-1.12.14-.08.17-.17.16-.32,0-.86-.03-1.71,0-2.57.02-.38-.12-.61-.43-.82-1.74-1.19-3.67-1.54-5.72-1.11-2.43.51-4.11,1.88-4.85,4.25-.17.54-.26,1.1-.25,1.68h10.5ZM8.83,11.1c1.08.23,2.06.63,2.97,1.3,0-.39.02-.73,0-1.08-.03-.56.36-.98,1.01-.98,2.49.02,4.98,0,7.47,0,.69,0,1,.31,1,.99,0,1.6,0,3.19,0,4.79,0,.14.03.23.17.31.47.29.68.85.52,1.37-.16.53-.63.9-1.2.9-2.81,0-5.62,0-8.43,0-.41,0-.74-.16-.98-.48-.09-.12-.18-.14-.32-.14-3.51,0-7.02,0-10.54,0-.45,0-.5-.05-.49-.49.06-1.79.64-3.38,1.96-4.67.98-.95,2.18-1.52,3.57-1.82-1.42-.81-2.14-1.98-2.01-3.57.08-1.01.58-1.83,1.4-2.46,1.59-1.22,3.92-.92,5.16.66,1.29,1.64.92,4.21-1.26,5.36"/>
      <path class="cls-1" d="M19.36,8.29s.1-.06.14-.1c.12-.12.23-.25.37-.35.16-.13.14-.24.04-.39-.14-.2-.28-.4-.39-.61-.05-.1-.05-.25-.02-.36.07-.22.19-.42.27-.64.06-.16.15-.24.31-.27.23-.04.45-.1.68-.14.19-.03.29-.11.27-.32-.02-.15-.01-.3,0-.46,0-.15-.06-.23-.21-.26-.25-.05-.51-.09-.76-.18-.11-.04-.22-.14-.27-.24-.12-.21-.21-.43-.28-.66-.03-.11,0-.24.02-.36.02-.08.09-.15.14-.22.39-.6.39-.6-.13-1.1-.12-.12-.22-.12-.35-.03-.21.14-.43.26-.64.4-.13.08-.25.09-.4.02-.21-.1-.43-.19-.66-.27-.15-.05-.24-.13-.27-.29-.05-.24-.11-.48-.17-.72-.03-.15-.1-.23-.28-.22-.16.01-.33.01-.49,0-.17-.01-.25.06-.28.21-.05.24-.11.48-.17.72-.03.15-.11.24-.26.29-.23.08-.45.2-.68.27-.11.03-.26.03-.37-.02-.21-.1-.41-.23-.61-.37-.17-.12-.29-.1-.44.05-.46.47-.48.47-.1,1.01.2.29.3.55.06.86-.03.04-.06.1-.07.16-.06.4-.33.57-.72.59-.02,0-.04,0-.07.01-.67.17-.54.03-.55.68,0,.05,0,.1,0,.15-.02.17.06.23.22.26.23.05.46.11.7.15.19.03.29.13.35.32.06.19.13.37.23.54.11.18.09.33-.03.5-.13.18-.24.37-.36.55-.09.13-.11.24.04.36.13.1.24.22.35.34.11.13.22.12.35.04.21-.13.42-.28.65-.39.11-.05.27-.05.39-.02.21.06.41.18.62.24.19.06.28.16.32.35.04.21.1.42.14.64.03.17.11.27.31.25.15-.02.3-.02.45,0,.21.02.28-.07.31-.25.04-.23.11-.45.15-.68.03-.15.12-.24.27-.29.22-.08.44-.19.66-.25.12-.03.28-.03.39.02.22.1.42.25.63.37.06.03.12.06.19.1M19.41,8.83c-.17-.06-.3-.09-.42-.14-.11-.05-.22-.13-.32-.19-.3-.19-.6-.18-.88.03-.04.03-.06.09-.08.15-.05.2-.09.4-.14.59-.1.37-.33.53-.72.53-.21,0-.42,0-.63,0-.37,0-.6-.17-.7-.52-.06-.19-.09-.4-.15-.59-.02-.08-.1-.15-.17-.2-.32-.21-.61-.18-.9.07-.09.08-.21.14-.33.18-.27.11-.53.08-.74-.13-.16-.15-.32-.31-.47-.46-.26-.26-.3-.53-.12-.85.1-.18.23-.34.32-.52.04-.08.04-.18.02-.27-.07-.37-.32-.53-.69-.56-.14,0-.28-.06-.4-.12-.24-.11-.37-.29-.37-.55,0-.24,0-.48,0-.72,0-.33.17-.55.49-.64.2-.06.4-.1.61-.14.13-.02.18-.1.25-.2.21-.32.13-.59-.09-.86-.08-.1-.15-.22-.19-.34-.1-.25-.07-.48.13-.68.16-.16.32-.32.49-.48.27-.26.54-.3.87-.12.18.1.35.22.53.31.08.04.19.03.28.02.39-.06.55-.32.57-.68,0-.11.05-.23.09-.33.11-.26.3-.41.6-.42.25,0,.51-.01.76,0,.33.01.55.19.64.51.06.19.1.38.14.57.02.13.1.18.21.25.32.19.59.14.86-.08.09-.07.2-.13.31-.18.3-.13.54-.09.78.13.17.16.33.31.49.48.23.23.27.47.14.76-.05.11-.11.23-.19.32-.21.25-.28.5-.09.8.07.12.13.21.28.23.19.03.38.08.56.13.35.1.52.31.53.66,0,.22,0,.44,0,.65,0,.35-.16.55-.51.66-.2.06-.4.11-.61.14-.14.02-.18.1-.25.21-.2.31-.14.57.09.83.09.1.15.22.2.34.11.26.07.5-.14.7-.17.17-.34.35-.53.5-.12.1-.29.16-.42.22"/>
      <path class="cls-1" d="M17.11,13.51c0-.31-.24-.56-.56-.57-.32-.01-.59.24-.6.55,0,.3.25.56.56.57.33,0,.59-.23.6-.55M16.54,14.59c-.62,0-1.13-.49-1.13-1.09,0-.59.5-1.08,1.11-1.08.61,0,1.12.47,1.12,1.07,0,.61-.49,1.1-1.11,1.1"/>
      <path class="cls-1" d="M14.78,4.9c0,.95.78,1.72,1.76,1.72.98,0,1.77-.76,1.77-1.71,0-.94-.79-1.72-1.76-1.72-.97,0-1.76.77-1.76,1.72M14.24,4.89c0-1.24,1.05-2.24,2.31-2.24,1.27,0,2.3,1.02,2.3,2.25,0,1.24-1.04,2.23-2.31,2.23-1.27,0-2.3-1.01-2.29-2.24"/>
    </g>
  </g>
</svg>