<?xml version="1.0" encoding="UTF-8"?>
<svg xmlns="http://www.w3.org/2000/svg" xmlns:xlink="http://www.w3.org/1999/xlink" viewBox="0 0 125.33 41.9">
  <defs>
    <style>
      .cls-1 {
        fill: url(#linear-gradient-6);
      }

      .cls-1, .cls-2, .cls-3, .cls-4, .cls-5, .cls-6, .cls-7, .cls-8, .cls-9 {
        mix-blend-mode: multiply;
      }

      .cls-1, .cls-2, .cls-3, .cls-4, .cls-5, .cls-6, .cls-7, .cls-8, .cls-9, .cls-10 {
        stroke-width: 0px;
      }

      .cls-2 {
        fill: url(#linear-gradient-7);
      }

      .cls-3 {
        fill: url(#linear-gradient-5);
      }

      .cls-4 {
        fill: url(#linear-gradient-9);
      }

      .cls-5 {
        fill: url(#linear-gradient-8);
      }

      .cls-6 {
        fill: url(#linear-gradient-2);
      }

      .cls-7 {
        fill: url(#linear-gradient-4);
      }

      .cls-8 {
        fill: url(#linear-gradient-3);
      }

      .cls-9 {
        fill: url(#linear-gradient);
      }

      .cls-10 {
        fill: #bf2025;
      }

      .cls-11 {
        isolation: isolate;
      }
    </style>
    <linearGradient id="linear-gradient" x1="-1887.03" y1="270.59" x2="-1866.23" y2="270.59" gradientTransform="translate(-1802.52 519.57) rotate(172.63)" gradientUnits="userSpaceOnUse">
      <stop offset=".34" stop-color="#f7a357"/>
      <stop offset="1" stop-color="#f26921"/>
    </linearGradient>
    <linearGradient id="linear-gradient-2" x1="-1880.06" y1="255.46" x2="-1879.74" y2="276.46" gradientTransform="translate(-1802.52 519.57) rotate(172.63)" gradientUnits="userSpaceOnUse">
      <stop offset=".35" stop-color="#e57220"/>
      <stop offset="1" stop-color="#ed9e36"/>
    </linearGradient>
    <linearGradient id="linear-gradient-3" x1="-1886.34" y1="277.86" x2="-1881.39" y2="277.86" xlink:href="#linear-gradient"/>
    <linearGradient id="linear-gradient-4" x1="-1013.9" y1="-863.56" x2="-993.09" y2="-863.56" gradientTransform="translate(-64.69 1351.41) rotate(52.64)" gradientUnits="userSpaceOnUse">
      <stop offset="0" stop-color="#fcb017"/>
      <stop offset=".17" stop-color="#fbac18"/>
      <stop offset=".36" stop-color="#fbb618"/>
      <stop offset=".69" stop-color="#fdd219"/>
      <stop offset="1" stop-color="#fff21a"/>
    </linearGradient>
    <linearGradient id="linear-gradient-5" x1="-1006.92" y1="-878.69" x2="-1006.6" y2="-857.69" xlink:href="#linear-gradient-4"/>
    <linearGradient id="linear-gradient-6" x1="-1013.21" y1="-856.29" x2="-1008.25" y2="-856.29" xlink:href="#linear-gradient-4"/>
    <linearGradient id="linear-gradient-7" x1="-468.03" y1="458.56" x2="-447.23" y2="458.56" gradientTransform="translate(-212.86 -568.95) rotate(-67.36)" gradientUnits="userSpaceOnUse">
      <stop offset="0" stop-color="#f48063"/>
      <stop offset=".11" stop-color="#f37861"/>
      <stop offset=".27" stop-color="#f1655c"/>
      <stop offset=".38" stop-color="#f05459"/>
      <stop offset=".51" stop-color="#ef4c5a"/>
      <stop offset=".71" stop-color="#ee395e"/>
      <stop offset=".93" stop-color="#ed1965"/>
      <stop offset="1" stop-color="#ed0f68"/>
    </linearGradient>
    <linearGradient id="linear-gradient-8" x1="-461.05" y1="443.44" x2="-460.73" y2="464.43" gradientTransform="translate(-212.86 -568.95) rotate(-67.36)" gradientUnits="userSpaceOnUse">
      <stop offset="0" stop-color="#f26351"/>
      <stop offset=".23" stop-color="#f15c54"/>
      <stop offset=".38" stop-color="#f05459"/>
      <stop offset=".51" stop-color="#ef4c5a"/>
      <stop offset=".71" stop-color="#ee395e"/>
      <stop offset=".93" stop-color="#ed1965"/>
      <stop offset="1" stop-color="#ed0f68"/>
    </linearGradient>
    <linearGradient id="linear-gradient-9" x1="-467.34" y1="465.83" x2="-462.38" y2="465.83" xlink:href="#linear-gradient-8"/>
  </defs>
  <g class="cls-11">
    <g id="Layer_2" data-name="Layer 2">
      <g id="Layer_1-2" data-name="Layer 1">
        <g>
          <g>
            <g>
              <path class="cls-9" d="M17.39,16.13c3.58-.26,6.61-3.51,7.91-4.89,2.73-3.52,6.26-4.53,8.99-2.48-1.15-.8-1.3-.9-2.27-1.39-1.35-.6-2.02-.9-3.9-1.28-1.14-.16-2.13-.29-3.7-.18-.89.11-2.01.24-3.31.66-1.2.44-1.48.54-2.71,1.19-.38.23-.89.55-1.25.8-.7.5-1.37,1.16-2,1.96-2.68,3.91-.38,5.8,2.24,5.61h0Z"/>
              <path class="cls-6" d="M18.41,7.75c1.09-.57,1.38-.72,2.71-1.19.86-.24,1.94-.54,3.31-.66,1.19-.05,2.13-.08,3.7.18,1.46.32,2.19.48,3.9,1.28,1.26.69,1.39.76,2.27,1.39.39.29.76.65,1.12,1.07,1.9,2.26,2.78,5.9,2.61,9.77-.86,7.11-6.65,7.78-9.65,4.16-1.77-2.14-1.93-4.57-2.01-5.87.15-3.41-.63-6.62-2.3-8.61-1.92-2.28-4.54-2.41-6.9-.72.37-.25.86-.58,1.25-.8h0Z"/>
              <circle class="cls-8" cx="30.28" cy="2.48" r="2.48"/>
            </g>
            <path class="cls-7" d="M20.74,32.74c-2.01-2.98-6.34-3.98-8.19-4.4-4.41-.61-7.05-3.16-6.64-6.54-.11,1.4-.13,1.58-.07,2.66.15,1.47.23,2.2.84,4.01.44,1.07.81,1.99,1.69,3.29.54.72,1.21,1.62,2.22,2.54.97.82,1.21,1.01,2.39,1.75.39.21.92.49,1.32.69.78.35,1.69.61,2.7.75,4.73.37,5.21-2.57,3.74-4.75h0Z"/>
            <path class="cls-3" d="M12.98,36.05c-1.03-.66-1.31-.84-2.39-1.75-.64-.63-1.44-1.4-2.22-2.54-.64-1.01-1.14-1.8-1.69-3.29-.45-1.42-.68-2.13-.84-4.01-.04-1.44-.04-1.59.07-2.66.06-.48.18-.99.37-1.5,1.01-2.78,3.72-5.36,7.16-7.15,6.59-2.81,10.06,1.87,8.42,6.28-.97,2.61-2.99,3.95-4.08,4.67-3.02,1.58-5.41,3.85-6.31,6.3-1.02,2.8.18,5.14,2.83,6.34-.4-.2-.94-.46-1.32-.69h0Z"/>
            <circle class="cls-1" cx="2.48" cy="28.4" r="2.48"/>
            <path class="cls-2" d="M32.8,21.43c-1.57,3.23-.27,7.48.28,9.29,1.68,4.12.79,7.69-2.35,9.02,1.27-.6,1.43-.68,2.34-1.27,1.19-.87,1.79-1.3,3.06-2.74.71-.91,1.32-1.7,2.01-3.11.36-.83.8-1.86,1.09-3.19.22-1.25.27-1.55.32-2.94-.01-.45-.03-1.04-.07-1.49-.08-.85-.32-1.77-.7-2.71-2.05-4.28-4.84-3.23-5.98-.87h0Z"/>
            <path class="cls-5" d="M39.55,26.5c-.05,1.23-.07,1.56-.32,2.94-.22.87-.5,1.95-1.09,3.19-.55,1.05-.99,1.89-2.01,3.11-1,1.1-1.51,1.65-3.06,2.74-1.23.75-1.36.83-2.34,1.27-.45.19-.94.34-1.48.43-2.91.51-6.5-.55-9.77-2.62-5.73-4.3-3.42-9.65,1.22-10.43,2.74-.46,4.92.62,6.09,1.2,2.88,1.83,6.04,2.76,8.61,2.31,2.94-.52,4.36-2.73,4.08-5.62.03.45.07,1.04.07,1.49h0Z"/>
            <circle class="cls-4" cx="38.18" cy="39.42" r="2.48"/>
          </g>
          <g>
            <g>
              <path class="cls-10" d="M57.31,25.6c-1.21,0-2.33-.2-3.36-.61-1.03-.41-1.93-.98-2.68-1.71-.76-.73-1.34-1.59-1.77-2.57-.42-.98-.63-2.05-.63-3.22s.21-2.23.63-3.22c.42-.98,1.01-1.84,1.77-2.57.75-.73,1.65-1.3,2.67-1.71,1.03-.41,2.15-.61,3.38-.61s2.32.2,3.34.6c1.02.4,1.91.97,2.67,1.7.76.73,1.35,1.59,1.77,2.57.42.98.62,2.06.62,3.24s-.21,2.26-.62,3.24c-.42.98-1,1.84-1.77,2.57-.76.73-1.65,1.3-2.67,1.7-1.02.4-2.13.6-3.34.6ZM57.31,23.59c.88,0,1.69-.15,2.44-.45.75-.3,1.4-.73,1.95-1.28.55-.55.98-1.2,1.29-1.94.31-.74.46-1.55.46-2.42s-.16-1.68-.46-2.42c-.31-.74-.74-1.39-1.29-1.94-.55-.55-1.2-.98-1.95-1.28-.75-.3-1.56-.45-2.44-.45s-1.71.15-2.46.45c-.75.3-1.4.73-1.96,1.28-.56.55-.99,1.2-1.3,1.94-.31.74-.46,1.55-.46,2.42s.15,1.68.46,2.42c.31.74.74,1.39,1.3,1.94.56.55,1.21.98,1.96,1.28.75.3,1.57.45,2.46.45Z"/>
              <path class="cls-10" d="M69.18,25.42v-15.86h6.18c1.39,0,2.57.22,3.56.66.98.44,1.74,1.07,2.27,1.9.53.83.79,1.82.79,2.97s-.26,2.13-.79,2.96c-.53.82-1.28,1.45-2.27,1.89-.98.44-2.17.66-3.56.66h-4.94l1.02-1.04v5.87h-2.27ZM71.44,19.78l-1.02-1.11h4.87c1.45,0,2.55-.31,3.3-.94.75-.63,1.12-1.51,1.12-2.64s-.37-2.01-1.12-2.63c-.75-.62-1.85-.93-3.3-.93h-4.87l1.02-1.13v9.38ZM79.78,25.42l-4.03-5.75h2.42l4.08,5.75h-2.47Z"/>
              <path class="cls-10" d="M85.64,25.42v-15.86h2.27v15.86h-2.27Z"/>
              <path class="cls-10" d="M99.82,25.6c-1.21,0-2.33-.2-3.36-.61-1.03-.41-1.93-.98-2.68-1.71-.76-.73-1.34-1.59-1.77-2.57-.42-.98-.63-2.05-.63-3.22s.21-2.23.63-3.22c.42-.98,1.01-1.84,1.77-2.57.75-.73,1.65-1.3,2.67-1.71,1.03-.41,2.15-.61,3.38-.61s2.32.2,3.34.6c1.02.4,1.91.97,2.67,1.7.76.73,1.35,1.59,1.77,2.57.42.98.62,2.06.62,3.24s-.21,2.26-.62,3.24c-.42.98-1,1.84-1.77,2.57-.76.73-1.65,1.3-2.67,1.7-1.02.4-2.13.6-3.34.6ZM99.82,23.59c.88,0,1.69-.15,2.44-.45.75-.3,1.4-.73,1.95-1.28.55-.55.98-1.2,1.29-1.94.31-.74.46-1.55.46-2.42s-.16-1.68-.46-2.42c-.31-.74-.74-1.39-1.29-1.94-.55-.55-1.2-.98-1.95-1.28-.75-.3-1.56-.45-2.44-.45s-1.71.15-2.46.45c-.75.3-1.4.73-1.96,1.28-.56.55-.99,1.2-1.3,1.94-.31.74-.46,1.55-.46,2.42s.15,1.68.46,2.42c.31.74.74,1.39,1.3,1.94.56.55,1.21.98,1.96,1.28.75.3,1.57.45,2.46.45Z"/>
              <path class="cls-10" d="M111.69,25.42v-15.86h1.86l10.49,13.02h-.97v-13.02h2.27v15.86h-1.86l-10.49-13.03h.97v13.03h-2.27Z"/>
            </g>
            <g>
              <path class="cls-10" d="M49.8,34.2v-3.63h.52v3.63h-.52Z"/>
              <path class="cls-10" d="M54,34.2v-3.63h.43l2.4,2.98h-.22v-2.98h.52v3.63h-.43l-2.4-2.98h.22v2.98h-.52Z"/>
              <path class="cls-10" d="M61.53,34.2v-3.18h-1.25v-.45h3v.45h-1.25v3.18h-.51Z"/>
              <path class="cls-10" d="M66.97,33.75h2.12v.45h-2.64v-3.63h2.56v.45h-2.04v2.73ZM66.92,32.14h1.87v.44h-1.87v-.44Z"/>
              <path class="cls-10" d="M72.52,34.2v-3.63h1.42c.32,0,.59.05.81.15.22.1.4.25.52.44.12.19.18.42.18.68s-.06.49-.18.68c-.12.19-.29.33-.52.43-.22.1-.5.15-.81.15h-1.13l.23-.24v1.34h-.52ZM73.04,32.91l-.23-.25h1.12c.33,0,.58-.07.76-.22.17-.14.26-.35.26-.6s-.09-.46-.26-.6c-.17-.14-.42-.21-.76-.21h-1.12l.23-.26v2.15ZM74.95,34.2l-.92-1.32h.56l.93,1.32h-.57Z"/>
              <path class="cls-10" d="M78.89,34.2v-3.63h.43l2.4,2.98h-.22v-2.98h.52v3.63h-.43l-2.4-2.98h.22v2.98h-.52Z"/>
              <path class="cls-10" d="M85.15,34.2l1.65-3.63h.51l1.65,3.63h-.54l-1.47-3.34h.21l-1.47,3.34h-.53ZM85.85,33.29l.14-.42h2.04l.15.42h-2.34Z"/>
              <path class="cls-10" d="M92.63,34.2v-3.18h-1.25v-.45h3v.45h-1.25v3.18h-.51Z"/>
              <path class="cls-10" d="M97.55,34.2v-3.63h.52v3.63h-.52Z"/>
              <path class="cls-10" d="M103.39,34.24c-.28,0-.53-.05-.77-.14s-.44-.22-.61-.39c-.17-.17-.31-.36-.4-.59-.1-.22-.15-.47-.15-.74s.05-.51.15-.74.23-.42.4-.59c.17-.17.38-.3.61-.39.24-.09.49-.14.77-.14s.53.05.77.14c.23.09.44.22.61.39.17.17.31.36.4.59.1.22.14.47.14.74s-.05.52-.14.74c-.1.22-.23.42-.4.59-.17.17-.38.3-.61.39-.23.09-.49.14-.77.14ZM103.39,33.78c.2,0,.39-.03.56-.1.17-.07.32-.17.45-.29s.22-.27.3-.44c.07-.17.11-.35.11-.56s-.04-.39-.11-.56c-.07-.17-.17-.32-.3-.44-.13-.13-.28-.22-.45-.29-.17-.07-.36-.1-.56-.1s-.39.03-.56.1c-.17.07-.32.17-.45.29s-.23.27-.3.44c-.07.17-.11.35-.11.56s.04.39.11.56c.07.17.17.32.3.44.13.13.28.22.45.29s.36.1.56.1Z"/>
              <path class="cls-10" d="M108.71,34.2v-3.63h.43l2.4,2.98h-.22v-2.98h.52v3.63h-.43l-2.4-2.98h.22v2.98h-.52Z"/>
              <path class="cls-10" d="M114.96,34.2l1.65-3.63h.51l1.65,3.63h-.54l-1.47-3.34h.21l-1.47,3.34h-.53ZM115.66,33.29l.14-.42h2.04l.15.42h-2.34Z"/>
              <path class="cls-10" d="M121.91,34.2v-3.63h.52v3.18h1.97v.45h-2.49Z"/>
            </g>
          </g>
        </g>
      </g>
    </g>
  </g>
</svg>