<?xml version="1.0" encoding="UTF-8"?>
<svg xmlns="http://www.w3.org/2000/svg" xmlns:xlink="http://www.w3.org/1999/xlink" viewBox="0 0 558.27 186.62">
  <defs>
    <style>
      .cls-1 {
        fill: url(#linear-gradient-6);
      }

      .cls-1, .cls-2, .cls-3, .cls-4, .cls-5, .cls-6, .cls-7, .cls-8, .cls-9 {
        mix-blend-mode: multiply;
      }

      .cls-1, .cls-2, .cls-3, .cls-4, .cls-5, .cls-6, .cls-7, .cls-8, .cls-9, .cls-10 {
        stroke-width: 0px;
      }

      .cls-2 {
        fill: url(#linear-gradient-7);
      }

      .cls-3 {
        fill: url(#linear-gradient-5);
      }

      .cls-4 {
        fill: url(#linear-gradient-9);
      }

      .cls-5 {
        fill: url(#linear-gradient-8);
      }

      .cls-6 {
        fill: url(#linear-gradient-2);
      }

      .cls-7 {
        fill: url(#linear-gradient-4);
      }

      .cls-8 {
        fill: url(#linear-gradient-3);
      }

      .cls-9 {
        fill: url(#linear-gradient);
      }

      .cls-10 {
        fill: #bf2025;
      }

      .cls-11 {
        isolation: isolate;
      }
    </style>
    <linearGradient id="linear-gradient" x1="-424.27" y1="452.72" x2="-331.6" y2="452.72" gradientTransform="translate(-209.73 544.74) rotate(172.63)" gradientUnits="userSpaceOnUse">
      <stop offset=".34" stop-color="#f7a357"/>
      <stop offset="1" stop-color="#f26921"/>
    </linearGradient>
    <linearGradient id="linear-gradient-2" x1="-393.18" y1="385.34" x2="-391.76" y2="478.87" gradientTransform="translate(-209.73 544.74) rotate(172.63)" gradientUnits="userSpaceOnUse">
      <stop offset=".35" stop-color="#e57220"/>
      <stop offset="1" stop-color="#ed9e36"/>
    </linearGradient>
    <linearGradient id="linear-gradient-3" x1="-421.19" y1="485.09" x2="-399.1" y2="485.09" xlink:href="#linear-gradient"/>
    <linearGradient id="linear-gradient-4" x1="-679.66" y1="-178.54" x2="-586.99" y2="-178.54" gradientTransform="translate(298.79 744.2) rotate(52.64)" gradientUnits="userSpaceOnUse">
      <stop offset="0" stop-color="#fcb017"/>
      <stop offset=".17" stop-color="#fbac18"/>
      <stop offset=".36" stop-color="#fbb618"/>
      <stop offset=".69" stop-color="#fdd219"/>
      <stop offset="1" stop-color="#fff21a"/>
    </linearGradient>
    <linearGradient id="linear-gradient-5" x1="-648.58" y1="-245.92" x2="-647.15" y2="-152.39" xlink:href="#linear-gradient-4"/>
    <linearGradient id="linear-gradient-6" x1="-676.58" y1="-146.17" x2="-654.5" y2="-146.17" xlink:href="#linear-gradient-4"/>
    <linearGradient id="linear-gradient-7" x1="-5.6" y1="-87.41" x2="87.07" y2="-87.41" gradientTransform="translate(217.57 204.63) rotate(-67.36)" gradientUnits="userSpaceOnUse">
      <stop offset="0" stop-color="#f48063"/>
      <stop offset=".11" stop-color="#f37861"/>
      <stop offset=".27" stop-color="#f1655c"/>
      <stop offset=".38" stop-color="#f05459"/>
      <stop offset=".51" stop-color="#ef4c5a"/>
      <stop offset=".71" stop-color="#ee395e"/>
      <stop offset=".93" stop-color="#ed1965"/>
      <stop offset="1" stop-color="#ed0f68"/>
    </linearGradient>
    <linearGradient id="linear-gradient-8" x1="25.49" y1="-154.78" x2="26.91" y2="-61.26" gradientTransform="translate(217.57 204.63) rotate(-67.36)" gradientUnits="userSpaceOnUse">
      <stop offset="0" stop-color="#f26351"/>
      <stop offset=".23" stop-color="#f15c54"/>
      <stop offset=".38" stop-color="#f05459"/>
      <stop offset=".51" stop-color="#ef4c5a"/>
      <stop offset=".71" stop-color="#ee395e"/>
      <stop offset=".93" stop-color="#ed1965"/>
      <stop offset="1" stop-color="#ed0f68"/>
    </linearGradient>
    <linearGradient id="linear-gradient-9" x1="-2.52" y1="-55.03" x2="19.56" y2="-55.03" gradientTransform="translate(148.71 227.02) rotate(13.73)" xlink:href="#linear-gradient-8"/>
  </defs>
  <g class="cls-11">
    <g id="Layer_2" data-name="Layer 2">
      <g id="Layer_1-2" data-name="Layer 1">
        <g>
          <g>
            <g>
              <path class="cls-9" d="M77.46,71.84c15.97-1.14,29.46-15.61,35.22-21.79,12.17-15.67,27.89-20.17,40.03-11.04-5.13-3.55-5.79-4.01-10.09-6.21-6-2.68-9.02-4.02-17.36-5.7-5.09-.7-9.48-1.3-16.47-.8-3.98.47-8.93,1.06-14.74,2.92-5.32,1.94-6.59,2.4-12.07,5.31-1.69,1.04-3.95,2.43-5.58,3.56-3.11,2.22-6.11,5.15-8.91,8.75-11.94,17.41-1.68,25.84,9.97,25.01h0Z"/>
              <path class="cls-6" d="M81.99,34.52c4.85-2.53,6.15-3.2,12.07-5.31,3.84-1.08,8.62-2.43,14.74-2.92,5.3-.21,9.48-.38,16.47.8,6.48,1.42,9.74,2.13,17.36,5.7,5.62,3.06,6.21,3.38,10.09,6.21,1.74,1.31,3.4,2.89,4.97,4.76,8.46,10.08,12.37,26.3,11.63,43.52-3.83,31.69-29.61,34.67-42.98,18.52-7.9-9.55-8.58-20.35-8.94-26.16.65-15.17-2.8-29.47-10.25-38.35-8.54-10.17-20.23-10.75-30.76-3.22,1.66-1.1,3.85-2.6,5.58-3.56h0Z"/>
              <circle class="cls-8" cx="134.86" cy="11.04" r="11.04"/>
            </g>
            <path class="cls-7" d="M92.4,145.83c-8.97-13.26-28.25-17.71-36.49-19.61-19.65-2.7-31.41-14.07-29.58-29.15-.51,6.22-.57,7.02-.33,11.85.68,6.54,1.02,9.82,3.75,17.88,1.94,4.75,3.62,8.86,7.54,14.67,2.4,3.21,5.38,7.21,9.9,11.3,4.34,3.64,5.37,4.5,10.63,7.8,1.75.95,4.08,2.2,5.88,3.06,3.48,1.58,7.52,2.72,12.03,3.34,21.05,1.63,23.22-11.46,16.68-21.14h0Z"/>
            <path class="cls-3" d="M57.82,160.57c-4.61-2.93-5.85-3.72-10.63-7.8-2.86-2.79-6.41-6.25-9.9-11.3-2.83-4.48-5.07-8.02-7.54-14.67-2.01-6.32-3.02-9.5-3.75-17.88-.16-6.4-.18-7.07.33-11.85.26-2.16.8-4.39,1.64-6.69,4.5-12.36,16.59-23.86,31.87-31.83,29.36-12.53,44.83,8.31,37.53,27.96-4.32,11.62-13.34,17.6-18.18,20.82-13.47,7.02-24.12,17.16-28.09,28.05-4.54,12.48.8,22.89,12.59,28.24-1.78-.89-4.17-2.03-5.88-3.06h0Z"/>
            <circle class="cls-1" cx="11.04" cy="126.52" r="11.04"/>
            <path class="cls-2" d="M146.1,95.47c-6.99,14.4-1.21,33.32,1.26,41.4,7.49,18.37,3.52,34.24-10.46,40.19,5.64-2.67,6.36-3.01,10.43-5.64,5.32-3.86,7.99-5.8,13.62-12.19,3.15-4.06,5.86-7.56,8.93-13.86,1.58-3.68,3.55-8.27,4.84-14.22.98-5.58,1.21-6.91,1.44-13.11-.06-1.99-.13-4.64-.29-6.62-.37-3.8-1.41-7.87-3.12-12.09-9.11-19.04-21.54-14.38-26.64-3.87h0Z"/>
            <path class="cls-5" d="M176.15,118.04c-.24,5.46-.3,6.93-1.44,13.11-.98,3.87-2.21,8.68-4.84,14.22-2.47,4.69-4.42,8.4-8.93,13.86-4.47,4.9-6.72,7.36-13.62,12.19-5.46,3.34-6.04,3.69-10.43,5.64-2,.85-4.21,1.5-6.61,1.92-12.96,2.28-28.96-2.44-43.5-11.69-25.53-19.17-15.22-42.98,5.46-46.48,12.22-2.07,21.91,2.75,27.12,5.34,12.82,8.15,26.92,12.31,38.33,10.3,13.08-2.3,19.42-12.14,18.16-25.03.12,1.98.32,4.63.29,6.62h0Z"/>
            <circle class="cls-4" cx="170.05" cy="175.58" r="11.04" transform="translate(-29.75 316.38) rotate(-81.09)"/>
          </g>
          <g>
            <g>
              <path class="cls-10" d="M255.27,114.04c-5.38,0-10.38-.91-14.98-2.72-4.61-1.82-8.59-4.35-11.96-7.62-3.36-3.26-5.99-7.08-7.87-11.45-1.88-4.37-2.83-9.15-2.83-14.33s.94-9.95,2.83-14.33c1.88-4.37,4.51-8.19,7.87-11.45,3.36-3.26,7.33-5.8,11.91-7.62,4.57-1.82,9.59-2.72,15.03-2.72s10.34.89,14.88,2.67c4.54,1.78,8.51,4.31,11.91,7.57,3.4,3.26,6.02,7.08,7.87,11.45,1.85,4.37,2.78,9.18,2.78,14.43s-.93,10.06-2.78,14.43c-1.85,4.37-4.47,8.19-7.87,11.45-3.4,3.26-7.37,5.79-11.91,7.57-4.54,1.78-9.5,2.67-14.88,2.67ZM255.27,105.06c3.9,0,7.52-.67,10.85-2.02,3.33-1.35,6.22-3.24,8.68-5.7,2.45-2.45,4.37-5.33,5.75-8.63,1.38-3.3,2.07-6.89,2.07-10.8s-.69-7.5-2.07-10.8c-1.38-3.3-3.3-6.17-5.75-8.63-2.46-2.45-5.35-4.35-8.68-5.7-3.33-1.35-6.95-2.02-10.85-2.02s-7.62.67-10.95,2.02c-3.33,1.35-6.24,3.25-8.73,5.7-2.49,2.46-4.42,5.33-5.8,8.63-1.38,3.3-2.07,6.9-2.07,10.8s.69,7.5,2.07,10.8c1.38,3.3,3.31,6.17,5.8,8.63,2.49,2.46,5.4,4.36,8.73,5.7,3.33,1.35,6.98,2.02,10.95,2.02Z"/>
              <path class="cls-10" d="M308.14,113.23V42.6h27.55c6.19,0,11.47.98,15.84,2.93,4.37,1.95,7.73,4.78,10.09,8.48,2.35,3.7,3.53,8.11,3.53,13.22s-1.18,9.5-3.53,13.17c-2.36,3.67-5.72,6.47-10.09,8.42-4.37,1.95-9.65,2.93-15.84,2.93h-22l4.54-4.64v26.13h-10.09ZM318.23,88.11l-4.54-4.94h21.69c6.46,0,11.35-1.4,14.68-4.19,3.33-2.79,4.99-6.71,4.99-11.76s-1.66-8.95-4.99-11.7c-3.33-2.76-8.22-4.14-14.68-4.14h-21.69l4.54-5.04v41.77ZM355.36,113.23l-17.96-25.63h10.8l18.16,25.63h-11Z"/>
              <path class="cls-10" d="M381.49,113.23V42.6h10.09v70.63h-10.09Z"/>
              <path class="cls-10" d="M444.66,114.04c-5.38,0-10.38-.91-14.98-2.72-4.61-1.82-8.59-4.35-11.96-7.62-3.36-3.26-5.99-7.08-7.87-11.45-1.88-4.37-2.83-9.15-2.83-14.33s.94-9.95,2.83-14.33c1.88-4.37,4.51-8.19,7.87-11.45,3.36-3.26,7.33-5.8,11.91-7.62,4.57-1.82,9.59-2.72,15.03-2.72s10.34.89,14.88,2.67c4.54,1.78,8.51,4.31,11.91,7.57,3.4,3.26,6.02,7.08,7.87,11.45,1.85,4.37,2.78,9.18,2.78,14.43s-.93,10.06-2.78,14.43c-1.85,4.37-4.47,8.19-7.87,11.45-3.4,3.26-7.37,5.79-11.91,7.57-4.54,1.78-9.5,2.67-14.88,2.67ZM444.66,105.06c3.9,0,7.52-.67,10.85-2.02,3.33-1.35,6.22-3.24,8.68-5.7,2.45-2.45,4.37-5.33,5.75-8.63,1.38-3.3,2.07-6.89,2.07-10.8s-.69-7.5-2.07-10.8c-1.38-3.3-3.3-6.17-5.75-8.63-2.46-2.45-5.35-4.35-8.68-5.7-3.33-1.35-6.95-2.02-10.85-2.02s-7.62.67-10.95,2.02c-3.33,1.35-6.24,3.25-8.73,5.7-2.49,2.46-4.42,5.33-5.8,8.63-1.38,3.3-2.07,6.9-2.07,10.8s.69,7.5,2.07,10.8c1.38,3.3,3.31,6.17,5.8,8.63,2.49,2.46,5.4,4.36,8.73,5.7,3.33,1.35,6.98,2.02,10.95,2.02Z"/>
              <path class="cls-10" d="M497.53,113.23V42.6h8.27l46.72,58.02h-4.34v-58.02h10.09v70.63h-8.27l-46.72-58.02h4.34v58.02h-10.09Z"/>
            </g>
            <g>
              <path class="cls-10" d="M221.81,152.34v-16.18h2.31v16.18h-2.31Z"/>
              <path class="cls-10" d="M240.53,152.34v-16.18h1.9l10.7,13.29h-.99v-13.29h2.31v16.18h-1.9l-10.7-13.29h.99v13.29h-2.31Z"/>
              <path class="cls-10" d="M274.07,152.34v-14.17h-5.55v-2.01h13.38v2.01h-5.55v14.17h-2.29Z"/>
              <path class="cls-10" d="M298.3,150.33h9.43v2.01h-11.74v-16.18h11.42v2.01h-9.11v12.16ZM298.09,143.14h8.32v1.96h-8.32v-1.96Z"/>
              <path class="cls-10" d="M323.03,152.34v-16.18h6.31c1.42,0,2.63.22,3.63.67,1,.45,1.77,1.09,2.31,1.94.54.85.81,1.86.81,3.03s-.27,2.18-.81,3.02c-.54.84-1.31,1.48-2.31,1.93-1,.45-2.21.67-3.63.67h-5.04l1.04-1.06v5.99h-2.31ZM325.34,146.59l-1.04-1.13h4.97c1.48,0,2.6-.32,3.36-.96.76-.64,1.14-1.54,1.14-2.69s-.38-2.05-1.14-2.68c-.76-.63-1.88-.95-3.36-.95h-4.97l1.04-1.16v9.57ZM333.85,152.34l-4.11-5.87h2.47l4.16,5.87h-2.52Z"/>
              <path class="cls-10" d="M351.39,152.34v-16.18h1.9l10.7,13.29h-.99v-13.29h2.31v16.18h-1.9l-10.7-13.29h.99v13.29h-2.31Z"/>
              <path class="cls-10" d="M379.27,152.34l7.33-16.18h2.29l7.35,16.18h-2.43l-6.54-14.89h.92l-6.54,14.89h-2.38ZM382.39,148.3l.62-1.85h9.11l.67,1.85h-10.4Z"/>
              <path class="cls-10" d="M412.6,152.34v-14.17h-5.55v-2.01h13.38v2.01h-5.55v14.17h-2.29Z"/>
              <path class="cls-10" d="M434.52,152.34v-16.18h2.31v16.18h-2.31Z"/>
              <path class="cls-10" d="M460.55,152.53c-1.23,0-2.38-.21-3.43-.62s-1.97-1-2.74-1.75c-.77-.75-1.37-1.62-1.8-2.62-.43-1-.65-2.1-.65-3.28s.22-2.28.65-3.28,1.03-1.88,1.8-2.62c.77-.75,1.68-1.33,2.73-1.75,1.05-.42,2.2-.62,3.44-.62s2.37.2,3.41.61c1.04.41,1.95.99,2.73,1.73.78.75,1.38,1.62,1.8,2.62.42,1,.64,2.1.64,3.31s-.21,2.3-.64,3.31c-.42,1-1.03,1.88-1.8,2.62-.78.75-1.69,1.33-2.73,1.73-1.04.41-2.18.61-3.41.61ZM460.55,150.47c.89,0,1.72-.15,2.49-.46.76-.31,1.43-.74,1.99-1.31s1-1.22,1.32-1.98c.32-.75.47-1.58.47-2.47s-.16-1.72-.47-2.47c-.32-.75-.76-1.41-1.32-1.98-.56-.56-1.23-1-1.99-1.31-.76-.31-1.59-.46-2.49-.46s-1.74.15-2.51.46c-.76.31-1.43.74-2,1.31s-1.01,1.22-1.33,1.98c-.32.76-.47,1.58-.47,2.47s.16,1.72.47,2.47c.32.76.76,1.41,1.33,1.98.57.56,1.24,1,2,1.31s1.6.46,2.51.46Z"/>
              <path class="cls-10" d="M484.22,152.34v-16.18h1.9l10.7,13.29h-.99v-13.29h2.31v16.18h-1.9l-10.7-13.29h.99v13.29h-2.31Z"/>
              <path class="cls-10" d="M512.09,152.34l7.33-16.18h2.29l7.35,16.18h-2.43l-6.54-14.89h.92l-6.54,14.89h-2.38ZM515.22,148.3l.62-1.85h9.11l.67,1.85h-10.4Z"/>
              <path class="cls-10" d="M543.02,152.34v-16.18h2.31v14.17h8.76v2.01h-11.07Z"/>
            </g>
          </g>
        </g>
      </g>
    </g>
  </g>
</svg>